ply
format ascii 1.0
comment Created by Blender 2.72 (sub 0) - www.blender.org, source file: ''
element vertex 488
property float x
property float y
property float z
property float nx
property float ny
property float nz
element face 136
property list uchar uint vertex_indices
end_header
-0.134543 0.340616 2.239628 0.338457 0.874245 0.348054
-0.134543 0.158077 2.699604 0.338457 0.874245 0.348054
-0.112857 0.149095 2.699604 0.338457 0.874245 0.348054
0.006711 0.268663 2.284474 0.338457 0.874245 0.348054
0.006711 0.268663 2.284474 0.874247 0.338454 0.348054
-0.112857 0.149095 2.699604 0.874247 0.338454 0.348054
-0.103875 0.127408 2.699604 0.874247 0.338454 0.348054
0.078664 0.127408 2.239628 0.874247 0.338454 0.348054
0.078664 0.127408 2.239628 0.874245 -0.338457 0.348054
-0.103875 0.127408 2.699604 0.874245 -0.338457 0.348054
-0.112857 0.105722 2.699604 0.874245 -0.338457 0.348054
0.006711 -0.013846 2.284474 0.874245 -0.338457 0.348054
0.006711 -0.013846 2.284474 0.338457 -0.874245 0.348054
-0.112857 0.105722 2.699604 0.338457 -0.874245 0.348054
-0.134543 0.096740 2.699604 0.338457 -0.874245 0.348054
-0.134543 -0.085799 2.239628 0.338457 -0.874245 0.348054
-0.134543 -0.085799 2.239628 -0.338455 -0.874246 0.348055
-0.134543 0.096740 2.699604 -0.338455 -0.874246 0.348055
-0.156229 0.105722 2.699604 -0.338455 -0.874246 0.348055
-0.275798 -0.013846 2.284474 -0.338455 -0.874246 0.348055
-0.275798 -0.013846 2.284474 -0.874243 -0.338461 0.348055
-0.156229 0.105722 2.699604 -0.874243 -0.338461 0.348055
-0.165212 0.127408 2.699604 -0.874243 -0.338461 0.348055
-0.347751 0.127408 2.239628 -0.874243 -0.338461 0.348055
-0.112857 0.149095 2.699604 0.000000 -0.000000 1.000000
-0.112857 0.105722 2.699604 0.000000 -0.000000 1.000000
-0.103875 0.127408 2.699604 0.000000 -0.000000 1.000000
-0.156229 0.105722 2.699604 0.000000 0.000000 1.000000
-0.134543 0.096740 2.699604 0.000000 0.000000 1.000000
-0.156229 0.149095 2.699604 0.000000 -0.000000 1.000000
-0.165212 0.127408 2.699604 0.000000 -0.000000 1.000000
-0.134543 0.158077 2.699604 -0.000000 0.000000 1.000000
-0.275798 0.268663 2.284474 -0.338455 0.874246 0.348055
-0.156229 0.149095 2.699604 -0.338455 0.874246 0.348055
-0.134543 0.158077 2.699604 -0.338455 0.874246 0.348055
-0.134543 0.340616 2.239628 -0.338455 0.874246 0.348055
-0.347751 0.127408 2.239628 -0.874245 0.338458 0.348055
-0.165212 0.127408 2.699604 -0.874245 0.338458 0.348055
-0.156229 0.149095 2.699604 -0.874245 0.338458 0.348055
-0.275798 0.268663 2.284474 -0.874245 0.338458 0.348055
-0.134543 0.707325 0.358485 -0.225497 0.225497 -0.947788
-0.714460 0.127408 0.358485 -0.225497 0.225497 -0.947788
-0.518751 0.511615 0.403332 -0.225497 0.225497 -0.947788
-0.134543 -0.452509 0.358485 -0.225498 -0.225498 -0.947788
-0.518751 -0.256798 0.403332 -0.225498 -0.225498 -0.947788
-0.714460 0.127408 0.358485 -0.225498 -0.225498 -0.947788
0.445373 0.127408 0.358485 0.225499 -0.225499 -0.947787
0.249663 -0.256798 0.403332 0.225499 -0.225499 -0.947787
-0.134543 -0.452509 0.358485 0.225499 -0.225499 -0.947787
-0.134543 0.707325 0.358485 0.225498 0.225498 -0.947788
0.249663 0.511615 0.403332 0.225498 0.225498 -0.947788
0.445373 0.127408 0.358485 0.225498 0.225498 -0.947788
-0.134543 0.707325 0.358485 0.000000 0.000000 -1.000000
-0.134543 -0.452509 0.358485 0.000000 0.000000 -1.000000
-0.714460 0.127408 0.358485 0.000000 0.000000 -1.000000
0.445373 0.127408 0.358485 0.000000 0.000000 -1.000000
-0.134543 0.801903 0.326068 0.388218 0.845621 0.366350
-0.134543 0.619008 0.741197 0.388218 0.845621 0.366350
0.191151 0.453103 0.786044 0.388218 0.845621 0.366350
0.312323 0.574274 0.370914 0.388218 0.845621 0.366350
-0.134543 0.741743 0.708780 0.368885 0.832258 0.413849
-0.134543 0.530691 1.123909 0.368885 0.832258 0.413849
0.132639 0.394591 1.168756 0.368885 0.832258 0.413849
0.272466 0.534418 0.753626 0.368885 0.832258 0.413849
-0.134543 0.657705 1.091492 0.357304 0.833773 0.420901
-0.134543 0.442374 1.506622 0.357304 0.833773 0.420901
0.074128 0.336079 1.551468 0.357304 0.833773 0.420901
0.216788 0.478740 1.136338 0.357304 0.833773 0.420901
-0.134543 0.545749 1.474204 0.354611 0.853488 0.381851
-0.134543 0.354057 1.889334 0.354611 0.853488 0.381851
0.015616 0.277567 1.934180 0.354611 0.853488 0.381851
0.142616 0.404567 1.519050 0.354611 0.853488 0.381851
-0.134543 0.455562 1.856916 0.330486 0.864519 0.378663
-0.134543 0.265740 2.272046 0.330486 0.864519 0.378663
-0.042896 0.219056 2.316892 0.330486 0.864519 0.378663
0.082865 0.344816 1.901762 0.330486 0.864519 0.378663
0.312323 0.574274 0.370914 0.845621 0.388217 0.366350
0.191151 0.453103 0.786044 0.845621 0.388217 0.366350
0.357057 0.127408 0.741197 0.845621 0.388217 0.366350
0.539950 0.127408 0.326068 0.845621 0.388217 0.366350
0.272466 0.534418 0.753626 0.832258 0.368885 0.413850
0.132639 0.394591 1.168756 0.832258 0.368885 0.413850
0.268739 0.127408 1.123909 0.832258 0.368885 0.413850
0.479791 0.127408 0.708780 0.832258 0.368885 0.413850
0.216788 0.478740 1.136338 0.833774 0.357302 0.420900
0.074128 0.336079 1.551468 0.833774 0.357302 0.420900
0.180422 0.127408 1.506622 0.833774 0.357302 0.420900
0.395752 0.127408 1.091492 0.833774 0.357302 0.420900
0.142616 0.404567 1.519050 0.853489 0.354606 0.381851
0.015616 0.277567 1.934180 0.853489 0.354606 0.381851
0.092105 0.127408 1.889333 0.853489 0.354606 0.381851
0.283797 0.127408 1.474204 0.853489 0.354606 0.381851
0.082865 0.344816 1.901762 0.864520 0.330482 0.378664
-0.042896 0.219056 2.316892 0.864520 0.330482 0.378664
0.003788 0.127408 2.272046 0.864520 0.330482 0.378664
0.193610 0.127408 1.856916 0.864520 0.330482 0.378664
0.539950 0.127408 0.326068 0.845621 -0.388218 0.366350
0.357057 0.127408 0.741197 0.845621 -0.388218 0.366350
0.191151 -0.198286 0.786044 0.845621 -0.388218 0.366350
0.312323 -0.319457 0.370914 0.845621 -0.388218 0.366350
0.479791 0.127408 0.708780 0.832257 -0.368885 0.413850
0.268739 0.127408 1.123909 0.832257 -0.368885 0.413850
0.132639 -0.139774 1.168756 0.832257 -0.368885 0.413850
0.272466 -0.279601 0.753626 0.832257 -0.368885 0.413850
0.395752 0.127408 1.091492 0.833773 -0.357303 0.420900
0.180422 0.127408 1.506622 0.833773 -0.357303 0.420900
0.074128 -0.081262 1.551468 0.833773 -0.357303 0.420900
0.216788 -0.223923 1.136338 0.833773 -0.357303 0.420900
0.283797 0.127408 1.474204 0.853489 -0.354607 0.381851
0.092105 0.127408 1.889333 0.853489 -0.354607 0.381851
0.015616 -0.022751 1.934180 0.853489 -0.354607 0.381851
0.142616 -0.149750 1.519050 0.853489 -0.354607 0.381851
0.193610 0.127408 1.856916 0.864520 -0.330484 0.378664
0.003788 0.127408 2.272046 0.864520 -0.330484 0.378664
-0.042896 0.035761 2.316892 0.864520 -0.330484 0.378664
0.082865 -0.089999 1.901762 0.864520 -0.330484 0.378664
0.312323 -0.319457 0.370914 0.388218 -0.845621 0.366350
0.191151 -0.198286 0.786044 0.388218 -0.845621 0.366350
-0.134543 -0.364191 0.741197 0.388218 -0.845621 0.366350
-0.134543 -0.547086 0.326068 0.388218 -0.845621 0.366350
0.272466 -0.279601 0.753626 0.368885 -0.832258 0.413849
0.132639 -0.139774 1.168756 0.368885 -0.832258 0.413849
-0.134543 -0.275874 1.123909 0.368885 -0.832258 0.413849
-0.134543 -0.486926 0.708780 0.368885 -0.832258 0.413849
0.216788 -0.223923 1.136338 0.357303 -0.833773 0.420901
0.074128 -0.081262 1.551468 0.357303 -0.833773 0.420901
-0.134543 -0.187557 1.506622 0.357303 -0.833773 0.420901
-0.134543 -0.402888 1.091492 0.357303 -0.833773 0.420901
0.142616 -0.149750 1.519050 0.354608 -0.853489 0.381850
0.015616 -0.022751 1.934180 0.354608 -0.853489 0.381850
-0.134543 -0.099240 1.889333 0.354608 -0.853489 0.381850
-0.134543 -0.290932 1.474204 0.354608 -0.853489 0.381850
0.082865 -0.089999 1.901762 0.330486 -0.864519 0.378663
-0.042896 0.035761 2.316892 0.330486 -0.864519 0.378663
-0.134543 -0.010923 2.272046 0.330486 -0.864519 0.378663
-0.134543 -0.200745 1.856916 0.330486 -0.864519 0.378663
-0.134543 -0.547086 0.326068 -0.388217 -0.845621 0.366350
-0.134543 -0.364191 0.741197 -0.388217 -0.845621 0.366350
-0.460238 -0.198286 0.786044 -0.388217 -0.845621 0.366350
-0.581409 -0.319457 0.370914 -0.388217 -0.845621 0.366350
-0.134543 -0.486926 0.708780 -0.368884 -0.832258 0.413849
-0.134543 -0.275874 1.123909 -0.368884 -0.832258 0.413849
-0.401726 -0.139774 1.168756 -0.368884 -0.832258 0.413849
-0.541553 -0.279601 0.753626 -0.368884 -0.832258 0.413849
-0.134543 -0.402888 1.091492 -0.357303 -0.833773 0.420901
-0.134543 -0.187557 1.506622 -0.357303 -0.833773 0.420901
-0.343214 -0.081262 1.551468 -0.357303 -0.833773 0.420901
-0.485875 -0.223923 1.136338 -0.357303 -0.833773 0.420901
-0.134543 -0.290932 1.474204 -0.354610 -0.853488 0.381851
-0.134543 -0.099240 1.889333 -0.354610 -0.853488 0.381851
-0.284702 -0.022750 1.934180 -0.354610 -0.853488 0.381851
-0.411702 -0.149750 1.519050 -0.354610 -0.853488 0.381851
-0.134543 -0.200745 1.856916 -0.330486 -0.864519 0.378663
-0.134543 -0.010923 2.272046 -0.330486 -0.864519 0.378663
-0.226190 0.035761 2.316892 -0.330486 -0.864519 0.378663
-0.351951 -0.089999 1.901762 -0.330486 -0.864519 0.378663
-0.581409 -0.319457 0.370914 -0.845621 -0.388218 0.366350
-0.460238 -0.198286 0.786044 -0.845621 -0.388218 0.366350
-0.626143 0.127408 0.741197 -0.845621 -0.388218 0.366350
-0.809039 0.127408 0.326068 -0.845621 -0.388218 0.366350
-0.541553 -0.279601 0.753626 -0.832258 -0.368886 0.413848
-0.401726 -0.139774 1.168756 -0.832258 -0.368886 0.413848
-0.537827 0.127408 1.123909 -0.832258 -0.368886 0.413848
-0.748878 0.127408 0.708780 -0.832258 -0.368886 0.413848
-0.485875 -0.223923 1.136338 -0.833773 -0.357303 0.420900
-0.343214 -0.081262 1.551468 -0.833773 -0.357303 0.420900
-0.449509 0.127408 1.506622 -0.833773 -0.357303 0.420900
-0.664840 0.127408 1.091492 -0.833773 -0.357303 0.420900
-0.411702 -0.149750 1.519050 -0.853487 -0.354611 0.381851
-0.284702 -0.022750 1.934180 -0.853487 -0.354611 0.381851
-0.361192 0.127408 1.889333 -0.853487 -0.354611 0.381851
-0.552884 0.127408 1.474204 -0.853487 -0.354611 0.381851
-0.351951 -0.089999 1.901762 -0.864520 -0.330484 0.378664
-0.226190 0.035761 2.316892 -0.864520 -0.330484 0.378664
-0.272874 0.127408 2.272046 -0.864520 -0.330484 0.378664
-0.462697 0.127408 1.856916 -0.864520 -0.330484 0.378664
-0.581409 0.574274 0.370914 -0.388217 0.845621 0.366350
-0.460238 0.453103 0.786044 -0.388217 0.845621 0.366350
-0.134543 0.619008 0.741197 -0.388217 0.845621 0.366350
-0.134543 0.801903 0.326068 -0.388217 0.845621 0.366350
-0.541553 0.534417 0.753626 -0.368886 0.832258 0.413848
-0.401726 0.394591 1.168756 -0.368886 0.832258 0.413848
-0.134543 0.530691 1.123909 -0.368886 0.832258 0.413848
-0.134543 0.741743 0.708780 -0.368886 0.832258 0.413848
-0.485875 0.478740 1.136338 -0.357303 0.833773 0.420901
-0.343214 0.336079 1.551468 -0.357303 0.833773 0.420901
-0.134543 0.442374 1.506622 -0.357303 0.833773 0.420901
-0.134543 0.657705 1.091492 -0.357303 0.833773 0.420901
-0.411702 0.404567 1.519050 -0.354611 0.853488 0.381851
-0.284702 0.277567 1.934180 -0.354611 0.853488 0.381851
-0.134543 0.354057 1.889334 -0.354611 0.853488 0.381851
-0.134543 0.545749 1.474204 -0.354611 0.853488 0.381851
-0.351951 0.344816 1.901762 -0.330486 0.864519 0.378663
-0.226190 0.219056 2.316892 -0.330486 0.864519 0.378663
-0.134543 0.265740 2.272046 -0.330486 0.864519 0.378663
-0.134543 0.455562 1.856916 -0.330486 0.864519 0.378663
-0.809039 0.127408 0.326068 -0.845621 0.388217 0.366350
-0.626143 0.127408 0.741197 -0.845621 0.388217 0.366350
-0.460238 0.453103 0.786044 -0.845621 0.388217 0.366350
-0.581409 0.574274 0.370914 -0.845621 0.388217 0.366350
-0.748878 0.127408 0.708780 -0.832258 0.368886 0.413848
-0.537827 0.127408 1.123909 -0.832258 0.368886 0.413848
-0.401726 0.394591 1.168756 -0.832258 0.368886 0.413848
-0.541553 0.534417 0.753626 -0.832258 0.368886 0.413848
-0.664840 0.127408 1.091492 -0.833774 0.357302 0.420900
-0.449509 0.127408 1.506622 -0.833774 0.357302 0.420900
-0.343214 0.336079 1.551468 -0.833774 0.357302 0.420900
-0.485875 0.478740 1.136338 -0.833774 0.357302 0.420900
-0.552884 0.127408 1.474204 -0.853488 0.354609 0.381851
-0.361192 0.127408 1.889333 -0.853488 0.354609 0.381851
-0.284702 0.277567 1.934180 -0.853488 0.354609 0.381851
-0.411702 0.404567 1.519050 -0.853488 0.354609 0.381851
-0.462697 0.127408 1.856916 -0.864520 0.330482 0.378664
-0.272874 0.127408 2.272046 -0.864520 0.330482 0.378664
-0.226190 0.219056 2.316892 -0.864520 0.330482 0.378664
-0.351951 0.344816 1.901762 -0.864520 0.330482 0.378664
-0.134543 0.265740 2.272046 0.086541 -0.487119 -0.869037
-0.134543 0.340616 2.239628 0.086541 -0.487119 -0.869037
0.006711 0.268663 2.284474 0.086541 -0.487119 -0.869037
-0.042896 0.219056 2.316892 0.086541 -0.487119 -0.869037
-0.042896 0.219056 2.316892 -0.487119 0.086540 -0.869038
0.006711 0.268663 2.284474 -0.487119 0.086540 -0.869038
0.078664 0.127408 2.239628 -0.487119 0.086540 -0.869038
0.003788 0.127408 2.272046 -0.487119 0.086540 -0.869038
0.003788 0.127408 2.272046 -0.487119 -0.086541 -0.869037
0.078664 0.127408 2.239628 -0.487119 -0.086541 -0.869037
0.006711 -0.013846 2.284474 -0.487119 -0.086541 -0.869037
-0.042896 0.035761 2.316892 -0.487119 -0.086541 -0.869037
-0.042896 0.035761 2.316892 0.086541 0.487119 -0.869037
0.006711 -0.013846 2.284474 0.086541 0.487119 -0.869037
-0.134543 -0.085799 2.239628 0.086541 0.487119 -0.869037
-0.134543 -0.010923 2.272046 0.086541 0.487119 -0.869037
-0.134543 -0.010923 2.272046 -0.086541 0.487119 -0.869037
-0.134543 -0.085799 2.239628 -0.086541 0.487119 -0.869037
-0.275798 -0.013846 2.284474 -0.086541 0.487119 -0.869037
-0.226190 0.035761 2.316892 -0.086541 0.487119 -0.869037
-0.226190 0.035761 2.316892 0.487114 -0.086545 -0.869040
-0.275798 -0.013846 2.284474 0.487114 -0.086545 -0.869040
-0.347751 0.127408 2.239628 0.487114 -0.086545 -0.869040
-0.272874 0.127408 2.272046 0.487114 -0.086545 -0.869040
-0.226190 0.219056 2.316892 -0.086540 -0.487119 -0.869037
-0.275798 0.268663 2.284474 -0.086540 -0.487119 -0.869037
-0.134543 0.340616 2.239628 -0.086540 -0.487119 -0.869037
-0.134543 0.265740 2.272046 -0.086540 -0.487119 -0.869037
-0.272874 0.127408 2.272046 0.487114 0.086544 -0.869040
-0.347751 0.127408 2.239628 0.487114 0.086544 -0.869040
-0.275798 0.268663 2.284474 0.487114 0.086544 -0.869040
-0.226190 0.219056 2.316892 0.487114 0.086544 -0.869040
-0.134543 0.354057 1.889334 0.037253 -0.371297 -0.927767
-0.134543 0.455562 1.856916 0.037253 -0.371297 -0.927767
0.082865 0.344816 1.901762 0.037253 -0.371297 -0.927767
0.015616 0.277567 1.934180 0.037253 -0.371297 -0.927767
0.015616 0.277567 1.934180 -0.371294 0.037259 -0.927767
0.082865 0.344816 1.901762 -0.371294 0.037259 -0.927767
0.193610 0.127408 1.856916 -0.371294 0.037259 -0.927767
0.092105 0.127408 1.889333 -0.371294 0.037259 -0.927767
0.092105 0.127408 1.889333 -0.371294 -0.037259 -0.927767
0.193610 0.127408 1.856916 -0.371294 -0.037259 -0.927767
0.082865 -0.089999 1.901762 -0.371294 -0.037259 -0.927767
0.015616 -0.022751 1.934180 -0.371294 -0.037259 -0.927767
0.015616 -0.022751 1.934180 0.037257 0.371296 -0.927767
0.082865 -0.089999 1.901762 0.037257 0.371296 -0.927767
-0.134543 -0.200745 1.856916 0.037257 0.371296 -0.927767
-0.134543 -0.099240 1.889333 0.037257 0.371296 -0.927767
-0.134543 -0.099240 1.889333 -0.037258 0.371294 -0.927768
-0.134543 -0.200745 1.856916 -0.037258 0.371294 -0.927768
-0.351951 -0.089999 1.901762 -0.037258 0.371294 -0.927768
-0.284702 -0.022750 1.934180 -0.037258 0.371294 -0.927768
-0.284702 -0.022750 1.934180 0.371296 -0.037258 -0.927767
-0.351951 -0.089999 1.901762 0.371296 -0.037258 -0.927767
-0.462697 0.127408 1.856916 0.371296 -0.037258 -0.927767
-0.361192 0.127408 1.889333 0.371296 -0.037258 -0.927767
-0.284702 0.277567 1.934180 -0.037253 -0.371297 -0.927766
-0.351951 0.344816 1.901762 -0.037253 -0.371297 -0.927766
-0.134543 0.455562 1.856916 -0.037253 -0.371297 -0.927766
-0.134543 0.354057 1.889334 -0.037253 -0.371297 -0.927766
-0.361192 0.127408 1.889333 0.371296 0.037257 -0.927767
-0.462697 0.127408 1.856916 0.371296 0.037257 -0.927767
-0.351951 0.344816 1.901762 0.371296 0.037257 -0.927767
-0.284702 0.277567 1.934180 0.371296 0.037257 -0.927767
-0.134543 0.442374 1.506622 -0.005880 -0.350914 -0.936389
-0.134543 0.545749 1.474204 -0.005880 -0.350914 -0.936389
0.142616 0.404567 1.519050 -0.005880 -0.350914 -0.936389
0.074128 0.336079 1.551468 -0.005880 -0.350914 -0.936389
0.074128 0.336079 1.551468 -0.350914 -0.005878 -0.936389
0.142616 0.404567 1.519050 -0.350914 -0.005878 -0.936389
0.283797 0.127408 1.474204 -0.350914 -0.005878 -0.936389
0.180422 0.127408 1.506622 -0.350914 -0.005878 -0.936389
0.180422 0.127408 1.506622 -0.350914 0.005879 -0.936389
0.283797 0.127408 1.474204 -0.350914 0.005879 -0.936389
0.142616 -0.149750 1.519050 -0.350914 0.005879 -0.936389
0.074128 -0.081262 1.551468 -0.350914 0.005879 -0.936389
0.074128 -0.081262 1.551468 -0.005880 0.350914 -0.936389
0.142616 -0.149750 1.519050 -0.005880 0.350914 -0.936389
-0.134543 -0.290932 1.474204 -0.005880 0.350914 -0.936389
-0.134543 -0.187557 1.506622 -0.005880 0.350914 -0.936389
-0.134543 -0.187557 1.506622 0.005880 0.350914 -0.936389
-0.134543 -0.290932 1.474204 0.005880 0.350914 -0.936389
-0.411702 -0.149750 1.519050 0.005880 0.350914 -0.936389
-0.343214 -0.081262 1.551468 0.005880 0.350914 -0.936389
-0.343214 -0.081262 1.551468 0.350914 0.005880 -0.936389
-0.411702 -0.149750 1.519050 0.350914 0.005880 -0.936389
-0.552884 0.127408 1.474204 0.350914 0.005880 -0.936389
-0.449509 0.127408 1.506622 0.350914 0.005880 -0.936389
-0.343214 0.336079 1.551468 0.005880 -0.350914 -0.936389
-0.411702 0.404567 1.519050 0.005880 -0.350914 -0.936389
-0.134543 0.545749 1.474204 0.005880 -0.350914 -0.936389
-0.134543 0.442374 1.506622 0.005880 -0.350914 -0.936389
-0.449509 0.127408 1.506622 0.350914 -0.005880 -0.936389
-0.552884 0.127408 1.474204 0.350914 -0.005880 -0.936389
-0.411702 0.404567 1.519050 0.350914 -0.005880 -0.936389
-0.343214 0.336079 1.551468 0.350914 -0.005880 -0.936389
-0.134543 0.530691 1.123909 -0.009059 -0.290201 -0.956923
-0.134543 0.657705 1.091492 -0.009059 -0.290201 -0.956923
0.216788 0.478740 1.136338 -0.009059 -0.290201 -0.956923
0.132639 0.394591 1.168756 -0.009059 -0.290201 -0.956923
0.132639 0.394591 1.168756 -0.290201 -0.009059 -0.956923
0.216788 0.478740 1.136338 -0.290201 -0.009059 -0.956923
0.395752 0.127408 1.091492 -0.290201 -0.009059 -0.956923
0.268739 0.127408 1.123909 -0.290201 -0.009059 -0.956923
0.268739 0.127408 1.123909 -0.290201 0.009059 -0.956923
0.395752 0.127408 1.091492 -0.290201 0.009059 -0.956923
0.216788 -0.223923 1.136338 -0.290201 0.009059 -0.956923
0.132639 -0.139774 1.168756 -0.290201 0.009059 -0.956923
0.132639 -0.139774 1.168756 -0.009059 0.290201 -0.956923
0.216788 -0.223923 1.136338 -0.009059 0.290201 -0.956923
-0.134543 -0.402888 1.091492 -0.009059 0.290201 -0.956923
-0.134543 -0.275874 1.123909 -0.009059 0.290201 -0.956923
-0.134543 -0.275874 1.123909 0.009059 0.290201 -0.956923
-0.134543 -0.402888 1.091492 0.009059 0.290201 -0.956923
-0.485875 -0.223923 1.136338 0.009059 0.290201 -0.956923
-0.401726 -0.139774 1.168756 0.009059 0.290201 -0.956923
-0.401726 -0.139774 1.168756 0.290202 0.009059 -0.956922
-0.485875 -0.223923 1.136338 0.290202 0.009059 -0.956922
-0.664840 0.127408 1.091492 0.290202 0.009059 -0.956922
-0.537827 0.127408 1.123909 0.290202 0.009059 -0.956922
-0.401726 0.394591 1.168756 0.009059 -0.290201 -0.956923
-0.485875 0.478740 1.136338 0.009059 -0.290201 -0.956923
-0.134543 0.657705 1.091492 0.009059 -0.290201 -0.956923
-0.134543 0.530691 1.123909 0.009059 -0.290201 -0.956923
-0.537827 0.127408 1.123909 0.290202 -0.009059 -0.956922
-0.664840 0.127408 1.091492 0.290202 -0.009059 -0.956922
-0.485875 0.478740 1.136338 0.290202 -0.009059 -0.956922
-0.401726 0.394591 1.168756 0.290202 -0.009059 -0.956922
-0.134543 0.619008 0.741197 -0.031346 -0.291306 -0.956116
-0.134543 0.741743 0.708780 -0.031346 -0.291306 -0.956116
0.272466 0.534418 0.753626 -0.031346 -0.291306 -0.956116
0.191151 0.453103 0.786044 -0.031346 -0.291306 -0.956116
0.191151 0.453103 0.786044 -0.291306 -0.031346 -0.956116
0.272466 0.534418 0.753626 -0.291306 -0.031346 -0.956116
0.479791 0.127408 0.708780 -0.291306 -0.031346 -0.956116
0.357057 0.127408 0.741197 -0.291306 -0.031346 -0.956116
0.357057 0.127408 0.741197 -0.291306 0.031346 -0.956116
0.479791 0.127408 0.708780 -0.291306 0.031346 -0.956116
0.272466 -0.279601 0.753626 -0.291306 0.031346 -0.956116
0.191151 -0.198286 0.786044 -0.291306 0.031346 -0.956116
0.191151 -0.198286 0.786044 -0.031346 0.291306 -0.956116
0.272466 -0.279601 0.753626 -0.031346 0.291306 -0.956116
-0.134543 -0.486926 0.708780 -0.031346 0.291306 -0.956116
-0.134543 -0.364191 0.741197 -0.031346 0.291306 -0.956116
-0.134543 -0.364191 0.741197 0.031346 0.291306 -0.956116
-0.134543 -0.486926 0.708780 0.031346 0.291306 -0.956116
-0.541553 -0.279601 0.753626 0.031346 0.291306 -0.956116
-0.460238 -0.198286 0.786044 0.031346 0.291306 -0.956116
-0.460238 -0.198286 0.786044 0.291307 0.031347 -0.956116
-0.541553 -0.279601 0.753626 0.291307 0.031347 -0.956116
-0.748878 0.127408 0.708780 0.291307 0.031347 -0.956116
-0.626143 0.127408 0.741197 0.291307 0.031347 -0.956116
-0.460238 0.453103 0.786044 0.031347 -0.291307 -0.956116
-0.541553 0.534417 0.753626 0.031347 -0.291307 -0.956116
-0.134543 0.741743 0.708780 0.031347 -0.291307 -0.956116
-0.134543 0.619008 0.741197 0.031347 -0.291307 -0.956116
-0.626143 0.127408 0.741197 0.291307 -0.031347 -0.956116
-0.748878 0.127408 0.708780 0.291307 -0.031347 -0.956116
-0.541553 0.534417 0.753626 0.291307 -0.031347 -0.956116
-0.460238 0.453103 0.786044 0.291307 -0.031347 -0.956116
-0.134543 0.707325 0.358485 -0.079140 -0.352891 -0.932312
-0.134543 0.801903 0.326068 -0.079140 -0.352891 -0.932312
0.312323 0.574274 0.370914 -0.079140 -0.352891 -0.932312
0.249663 0.511615 0.403332 -0.079140 -0.352891 -0.932312
0.249663 0.511615 0.403332 -0.352891 -0.079140 -0.932311
0.312323 0.574274 0.370914 -0.352891 -0.079140 -0.932311
0.539950 0.127408 0.326068 -0.352891 -0.079140 -0.932311
0.445373 0.127408 0.358485 -0.352891 -0.079140 -0.932311
0.445373 0.127408 0.358485 -0.352891 0.079140 -0.932311
0.539950 0.127408 0.326068 -0.352891 0.079140 -0.932311
0.312323 -0.319457 0.370914 -0.352891 0.079140 -0.932311
0.249663 -0.256798 0.403332 -0.352891 0.079140 -0.932311
0.249663 -0.256798 0.403332 -0.079141 0.352893 -0.932311
0.312323 -0.319457 0.370914 -0.079141 0.352893 -0.932311
-0.134543 -0.547086 0.326068 -0.079141 0.352893 -0.932311
-0.134543 -0.452509 0.358485 -0.079141 0.352893 -0.932311
-0.134543 -0.452509 0.358485 0.079141 0.352893 -0.932311
-0.134543 -0.547086 0.326068 0.079141 0.352893 -0.932311
-0.581409 -0.319457 0.370914 0.079141 0.352893 -0.932311
-0.518751 -0.256798 0.403332 0.079141 0.352893 -0.932311
-0.518751 -0.256798 0.403332 0.352892 0.079140 -0.932311
-0.581409 -0.319457 0.370914 0.352892 0.079140 -0.932311
-0.809039 0.127408 0.326068 0.352892 0.079140 -0.932311
-0.714460 0.127408 0.358485 0.352892 0.079140 -0.932311
-0.134543 0.801903 0.326068 0.079140 -0.352891 -0.932311
-0.134543 0.707325 0.358485 0.079140 -0.352891 -0.932311
-0.518751 0.511615 0.403332 0.079140 -0.352891 -0.932311
-0.581409 0.574274 0.370914 0.079140 -0.352891 -0.932311
-0.714460 0.127408 0.358485 0.352892 -0.079140 -0.932311
-0.809039 0.127408 0.326068 0.352892 -0.079140 -0.932311
-0.581409 0.574274 0.370914 0.352892 -0.079140 -0.932311
-0.518751 0.511615 0.403332 0.352892 -0.079140 -0.932311
-0.224279 0.037673 -0.073124 -0.922507 -0.382120 0.054451
-0.212795 0.049157 0.202028 -0.922507 -0.382120 0.054451
-0.245208 0.127408 0.202028 -0.922507 -0.382120 0.054451
-0.261449 0.127408 -0.073124 -0.922507 -0.382120 0.054451
-0.134543 0.238073 0.202028 0.382118 0.922508 -0.054452
-0.134543 0.254314 0.477179 0.382118 0.922508 -0.054452
-0.044807 0.217144 0.477179 0.382118 0.922508 -0.054452
-0.056292 0.205660 0.202028 0.382118 0.922508 -0.054452
-0.224279 0.217144 -0.073124 -0.382116 0.922509 0.054451
-0.212795 0.205660 0.202028 -0.382116 0.922509 0.054451
-0.134543 0.238073 0.202028 -0.382116 0.922509 0.054451
-0.134543 0.254314 -0.073124 -0.382116 0.922509 0.054451
-0.056292 0.205660 0.202028 0.922511 0.382111 -0.054453
-0.044807 0.217144 0.477179 0.922511 0.382111 -0.054453
-0.007638 0.127408 0.477179 0.922511 0.382111 -0.054453
-0.023879 0.127408 0.202028 0.922511 0.382111 -0.054453
-0.044807 0.037673 -0.073124 0.382118 -0.922508 0.054452
-0.056292 0.049157 0.202028 0.382118 -0.922508 0.054452
-0.134543 0.016744 0.202028 0.382118 -0.922508 0.054452
-0.134543 0.000503 -0.073124 0.382118 -0.922508 0.054452
-0.023879 0.127408 0.202028 0.922509 -0.382115 -0.054453
-0.007638 0.127408 0.477179 0.922509 -0.382115 -0.054453
-0.044807 0.037673 0.477179 0.922509 -0.382115 -0.054453
-0.056292 0.049157 0.202028 0.922509 -0.382115 -0.054453
-0.007638 0.127408 -0.073124 0.922509 -0.382115 0.054453
-0.023879 0.127408 0.202028 0.922509 -0.382115 0.054453
-0.056292 0.049157 0.202028 0.922509 -0.382115 0.054453
-0.044807 0.037673 -0.073124 0.922509 -0.382115 0.054453
-0.056292 0.049157 0.202028 0.382118 -0.922508 -0.054452
-0.044807 0.037673 0.477179 0.382118 -0.922508 -0.054452
-0.134543 0.000503 0.477179 0.382118 -0.922508 -0.054452
-0.134543 0.016744 0.202028 0.382118 -0.922508 -0.054452
-0.044807 0.217144 -0.073124 0.922511 0.382111 0.054453
-0.056292 0.205660 0.202028 0.922511 0.382111 0.054453
-0.023879 0.127408 0.202028 0.922511 0.382111 0.054453
-0.007638 0.127408 -0.073124 0.922511 0.382111 0.054453
-0.134543 0.016744 0.202028 -0.382116 -0.922509 -0.054452
-0.134543 0.000503 0.477179 -0.382116 -0.922509 -0.054452
-0.224279 0.037673 0.477179 -0.382116 -0.922509 -0.054452
-0.212795 0.049157 0.202028 -0.382116 -0.922509 -0.054452
-0.261449 0.127408 -0.073124 -0.922509 0.382116 0.054451
-0.245208 0.127408 0.202028 -0.922509 0.382116 0.054451
-0.212795 0.205660 0.202028 -0.922509 0.382116 0.054451
-0.224279 0.217144 -0.073124 -0.922509 0.382116 0.054451
-0.134543 0.254314 -0.073124 0.382118 0.922508 0.054452
-0.134543 0.238073 0.202028 0.382118 0.922508 0.054452
-0.056292 0.205660 0.202028 0.382118 0.922508 0.054452
-0.044807 0.217144 -0.073124 0.382118 0.922508 0.054452
-0.212795 0.049157 0.202028 -0.922507 -0.382120 -0.054452
-0.224279 0.037673 0.477179 -0.922507 -0.382120 -0.054452
-0.261449 0.127408 0.477179 -0.922507 -0.382120 -0.054452
-0.245208 0.127408 0.202028 -0.922507 -0.382120 -0.054452
-0.044807 0.217144 0.477179 0.000000 -0.000000 1.000000
-0.044807 0.037673 0.477179 0.000000 -0.000000 1.000000
-0.007638 0.127408 0.477179 0.000000 -0.000000 1.000000
-0.224279 0.037673 0.477179 0.000000 0.000000 1.000000
-0.134543 0.000503 0.477179 0.000000 0.000000 1.000000
-0.224279 0.217144 0.477179 0.000000 -0.000000 1.000000
-0.261449 0.127408 0.477179 0.000000 -0.000000 1.000000
-0.134543 0.254314 0.477179 -0.000000 0.000000 1.000000
-0.212795 0.205660 0.202028 -0.382116 0.922509 -0.054452
-0.224279 0.217144 0.477179 -0.382116 0.922509 -0.054452
-0.134543 0.254314 0.477179 -0.382116 0.922509 -0.054452
-0.134543 0.238073 0.202028 -0.382116 0.922509 -0.054452
-0.245208 0.127408 0.202028 -0.922509 0.382116 -0.054452
-0.261449 0.127408 0.477179 -0.922509 0.382116 -0.054452
-0.224279 0.217144 0.477179 -0.922509 0.382116 -0.054452
-0.212795 0.205660 0.202028 -0.922509 0.382116 -0.054452
-0.134543 0.000503 -0.073124 -0.382116 -0.922509 0.054451
-0.134543 0.016744 0.202028 -0.382116 -0.922509 0.054451
-0.212795 0.049157 0.202028 -0.382116 -0.922509 0.054451
-0.224279 0.037673 -0.073124 -0.382116 -0.922509 0.054451
-0.134543 0.254314 -0.073124 0.000000 -0.000000 -1.000000
-0.261449 0.127408 -0.073124 0.000000 -0.000000 -1.000000
-0.224279 0.217144 -0.073124 0.000000 -0.000000 -1.000000
-0.134543 0.000503 -0.073124 0.000000 0.000000 -1.000000
-0.224279 0.037673 -0.073124 0.000000 0.000000 -1.000000
-0.007638 0.127408 -0.073124 0.000000 0.000000 -1.000000
-0.044807 0.037673 -0.073124 0.000000 0.000000 -1.000000
-0.044807 0.217144 -0.073124 0.000000 0.000000 -1.000000
4 0 1 2 3
4 4 5 6 7
4 8 9 10 11
4 12 13 14 15
4 16 17 18 19
4 20 21 22 23
3 24 25 26
3 27 28 25
3 29 30 27
3 24 31 29
3 24 27 25
3 24 29 27
4 32 33 34 35
4 36 37 38 39
3 40 41 42
3 43 44 45
3 46 47 48
3 49 50 51
3 52 53 54
3 52 55 53
4 56 57 58 59
4 60 61 62 63
4 64 65 66 67
4 68 69 70 71
4 72 73 74 75
4 76 77 78 79
4 80 81 82 83
4 84 85 86 87
4 88 89 90 91
4 92 93 94 95
4 96 97 98 99
4 100 101 102 103
4 104 105 106 107
4 108 109 110 111
4 112 113 114 115
4 116 117 118 119
4 120 121 122 123
4 124 125 126 127
4 128 129 130 131
4 132 133 134 135
4 136 137 138 139
4 140 141 142 143
4 144 145 146 147
4 148 149 150 151
4 152 153 154 155
4 156 157 158 159
4 160 161 162 163
4 164 165 166 167
4 168 169 170 171
4 172 173 174 175
4 176 177 178 179
4 180 181 182 183
4 184 185 186 187
4 188 189 190 191
4 192 193 194 195
4 196 197 198 199
4 200 201 202 203
4 204 205 206 207
4 208 209 210 211
4 212 213 214 215
4 216 217 218 219
4 220 221 222 223
4 224 225 226 227
4 228 229 230 231
4 232 233 234 235
4 236 237 238 239
4 240 241 242 243
4 244 245 246 247
4 248 249 250 251
4 252 253 254 255
4 256 257 258 259
4 260 261 262 263
4 264 265 266 267
4 268 269 270 271
4 272 273 274 275
4 276 277 278 279
4 280 281 282 283
4 284 285 286 287
4 288 289 290 291
4 292 293 294 295
4 296 297 298 299
4 300 301 302 303
4 304 305 306 307
4 308 309 310 311
4 312 313 314 315
4 316 317 318 319
4 320 321 322 323
4 324 325 326 327
4 328 329 330 331
4 332 333 334 335
4 336 337 338 339
4 340 341 342 343
4 344 345 346 347
4 348 349 350 351
4 352 353 354 355
4 356 357 358 359
4 360 361 362 363
4 364 365 366 367
4 368 369 370 371
4 372 373 374 375
4 376 377 378 379
4 380 381 382 383
4 384 385 386 387
4 388 389 390 391
4 392 393 394 395
4 396 397 398 399
4 400 401 402 403
4 404 405 406 407
4 408 409 410 411
4 412 413 414 415
4 416 417 418 419
4 420 421 422 423
4 424 425 426 427
4 428 429 430 431
4 432 433 434 435
4 436 437 438 439
4 440 441 442 443
4 444 445 446 447
4 448 449 450 451
4 452 453 454 455
4 456 457 458 459
3 460 461 462
3 463 464 461
3 465 466 463
3 460 467 465
3 460 463 461
3 460 465 463
4 468 469 470 471
4 472 473 474 475
4 476 477 478 479
3 480 481 482
3 483 484 481
3 485 486 483
3 480 487 485
3 480 483 481
3 480 485 483
