ply
format ascii 1.0
comment Created by Blender 2.76 (sub 0) - www.blender.org, source file: 'watchtower.blend'
element vertex 448
property float x
property float y
property float z
property float nx
property float ny
property float nz
property float s
property float t
element face 149
property list uchar uint vertex_indices
end_header
0.185173 -0.119318 0.641837 -0.017068 -0.088134 0.995962 0.796344 0.592008
0.177926 -0.122700 0.641414 -0.017068 -0.088134 0.995962 0.823126 0.592135
0.198522 -0.166395 0.637900 -0.017068 -0.088134 0.995962 0.822370 0.754269
0.205769 -0.163014 0.638323 -0.017068 -0.088134 0.995962 0.795589 0.754142
0.326763 -0.343719 0.010825 0.904919 0.422285 0.052877 0.525858 0.068061
0.185173 -0.119318 0.641837 0.904919 0.422285 0.052877 0.982847 0.072285
0.205769 -0.163014 0.638323 0.904919 0.422285 0.052877 0.957226 0.132378
0.347734 -0.388210 0.007247 0.904919 0.422285 0.052877 0.499771 0.129248
0.347734 -0.388210 0.007247 0.371698 -0.844733 0.385054 0.841527 0.990497
0.205769 -0.163014 0.638323 0.371698 -0.844733 0.385054 0.837157 0.426860
0.198522 -0.166395 0.637900 0.371698 -0.844733 0.385054 0.854554 0.426258
0.340487 -0.391591 0.006824 0.371698 -0.844733 0.385054 0.858924 0.989895
0.340487 -0.391591 0.006824 -0.904919 -0.422285 -0.052877 0.499718 0.129251
0.198522 -0.166395 0.637900 -0.904919 -0.422285 -0.052877 0.957173 0.132381
0.177926 -0.122700 0.641414 -0.904919 -0.422285 -0.052877 0.982794 0.072288
0.319516 -0.347101 0.010402 -0.904919 -0.422285 -0.052877 0.525805 0.068064
0.185173 -0.119318 0.641837 -0.371936 0.845110 -0.383996 0.837355 0.425574
0.326763 -0.343719 0.010825 -0.371936 0.845110 -0.383996 0.841728 0.989188
0.319516 -0.347101 0.010402 -0.371936 0.845110 -0.383996 0.859125 0.988586
0.177926 -0.122700 0.641414 -0.371936 0.845110 -0.383996 0.854751 0.424972
0.067226 -0.174989 0.642794 -0.372993 0.846780 -0.379262 0.837887 0.427457
0.208951 -0.398697 0.003941 -0.372993 0.846780 -0.379262 0.842260 0.991071
0.201704 -0.402078 0.003517 -0.372993 0.846780 -0.379262 0.859657 0.990469
0.059980 -0.178371 0.642371 -0.372993 0.846780 -0.379262 0.855284 0.426855
0.222675 -0.446569 -0.000060 -0.904919 -0.422285 -0.052877 0.498858 0.129297
0.080576 -0.222067 0.638857 -0.904919 -0.422285 -0.052877 0.956312 0.132428
0.059980 -0.178371 0.642371 -0.904919 -0.422285 -0.052877 0.981934 0.072334
0.201704 -0.402078 0.003517 -0.904919 -0.422285 -0.052877 0.524945 0.068111
0.229922 -0.443187 0.000363 0.372757 -0.846412 0.380314 0.842060 0.992380
0.087823 -0.218685 0.639281 0.372757 -0.846412 0.380314 0.837690 0.428743
0.080576 -0.222067 0.638857 0.372757 -0.846412 0.380314 0.855086 0.428141
0.222675 -0.446569 -0.000060 0.372757 -0.846412 0.380314 0.859457 0.991778
0.208951 -0.398697 0.003941 0.904920 0.422285 0.052877 0.524998 0.068108
0.067226 -0.174989 0.642794 0.904920 0.422285 0.052877 0.981987 0.072331
0.087823 -0.218685 0.639281 0.904920 0.422285 0.052877 0.956365 0.132425
0.229922 -0.443187 0.000363 0.904920 0.422285 0.052877 0.498911 0.129294
0.067226 -0.174989 0.642794 -0.017068 -0.088134 0.995962 0.796780 0.594923
0.059980 -0.178371 0.642371 -0.017068 -0.088134 0.995962 0.822949 0.594975
0.080576 -0.222067 0.638857 -0.017068 -0.088134 0.995962 0.822393 0.753400
0.087823 -0.218685 0.639281 -0.017068 -0.088134 0.995962 0.796224 0.753347
0.316706 -0.340409 0.036083 0.017069 0.088135 -0.995962 0.773011 0.338640
0.333396 -0.375816 0.033236 0.017069 0.088135 -0.995962 0.773312 0.205787
0.215146 -0.430998 0.026326 0.017069 0.088135 -0.995962 0.487997 0.204903
0.198457 -0.395591 0.029173 0.017069 0.088135 -0.995962 0.487696 0.337756
0.316567 -0.341126 0.044184 -0.017069 -0.088135 0.995962 0.772084 0.337840
0.198318 -0.396308 0.037274 -0.017069 -0.088135 0.995962 0.486769 0.336957
0.215007 -0.431715 0.034427 -0.017069 -0.088135 0.995962 0.487070 0.204103
0.333257 -0.376533 0.041337 -0.017069 -0.088135 0.995962 0.772385 0.204987
0.333396 -0.375816 0.033236 0.425240 -0.902168 -0.072549 0.984656 0.008841
0.333257 -0.376533 0.041337 0.425240 -0.902168 -0.072549 0.984671 0.057116
0.215007 -0.431715 0.034427 0.425240 -0.902168 -0.072549 0.483746 0.057446
0.215146 -0.430998 0.026326 0.425240 -0.902168 -0.072549 0.483731 0.009171
0.316567 -0.341126 0.044184 -0.425240 0.902168 0.072548 0.984373 0.063881
0.316706 -0.340409 0.036083 -0.425240 0.902168 0.072548 0.984358 0.015607
0.198457 -0.395591 0.029173 -0.425240 0.902168 0.072548 0.483433 0.015937
0.198318 -0.396308 0.037274 -0.425240 0.902168 0.072548 0.483448 0.064211
0.305565 -0.324044 0.096058 -0.425240 0.902168 0.072548 0.984373 0.063881
0.305704 -0.323327 0.087957 -0.425240 0.902168 0.072548 0.984358 0.015607
0.187454 -0.378509 0.081047 -0.425240 0.902168 0.072548 0.483433 0.015937
0.187315 -0.379226 0.089148 -0.425240 0.902168 0.072548 0.483448 0.064211
0.322393 -0.358734 0.085110 0.425240 -0.902168 -0.072547 0.984656 0.008841
0.322254 -0.359451 0.093211 0.425240 -0.902168 -0.072547 0.984671 0.057116
0.204005 -0.414633 0.086301 0.425240 -0.902168 -0.072547 0.483746 0.057446
0.204143 -0.413916 0.078200 0.425240 -0.902168 -0.072547 0.483731 0.009171
0.305565 -0.324044 0.096058 -0.017069 -0.088135 0.995962 0.772084 0.337840
0.187315 -0.379226 0.089148 -0.017069 -0.088135 0.995962 0.486769 0.336957
0.204005 -0.414633 0.086301 -0.017069 -0.088135 0.995962 0.487070 0.204103
0.322254 -0.359451 0.093211 -0.017069 -0.088135 0.995962 0.772385 0.204987
0.305704 -0.323327 0.087957 0.017069 0.088135 -0.995962 0.773011 0.338640
0.322393 -0.358734 0.085110 0.017069 0.088135 -0.995962 0.773312 0.205787
0.204143 -0.413916 0.078200 0.017069 0.088135 -0.995962 0.487997 0.204903
0.187454 -0.378509 0.081047 0.017069 0.088135 -0.995962 0.487696 0.337756
0.293179 -0.303016 0.140090 0.017069 0.088134 -0.995962 0.773011 0.338640
0.309869 -0.338424 0.137243 0.017069 0.088134 -0.995962 0.773312 0.205787
0.191619 -0.393605 0.130333 0.017069 0.088134 -0.995962 0.487997 0.204903
0.174930 -0.358198 0.133181 0.017069 0.088134 -0.995962 0.487696 0.337756
0.293040 -0.303733 0.148191 -0.017069 -0.088135 0.995962 0.772084 0.337840
0.174791 -0.358915 0.141282 -0.017069 -0.088135 0.995962 0.486769 0.336957
0.191480 -0.394322 0.138434 -0.017069 -0.088135 0.995962 0.487070 0.204103
0.309730 -0.339141 0.145344 -0.017069 -0.088135 0.995962 0.772385 0.204987
0.309869 -0.338424 0.137243 0.425240 -0.902168 -0.072546 0.984656 0.008841
0.309730 -0.339141 0.145344 0.425240 -0.902168 -0.072546 0.984671 0.057116
0.191480 -0.394322 0.138434 0.425240 -0.902168 -0.072546 0.483746 0.057446
0.191619 -0.393605 0.130333 0.425240 -0.902168 -0.072546 0.483731 0.009171
0.293040 -0.303733 0.148191 -0.425240 0.902168 0.072548 0.984373 0.063881
0.293179 -0.303016 0.140090 -0.425240 0.902168 0.072548 0.984358 0.015607
0.174930 -0.358198 0.133181 -0.425240 0.902168 0.072548 0.483433 0.015937
0.174791 -0.358915 0.141282 -0.425240 0.902168 0.072548 0.483448 0.064211
0.258152 -0.248498 0.304134 -0.425240 0.902168 0.072549 0.984373 0.063881
0.258291 -0.247781 0.296033 -0.425240 0.902168 0.072549 0.984358 0.015607
0.140042 -0.302963 0.289123 -0.425240 0.902168 0.072549 0.483433 0.015937
0.139903 -0.303680 0.297224 -0.425240 0.902168 0.072549 0.483448 0.064211
0.274981 -0.283189 0.293186 0.425240 -0.902168 -0.072549 0.984656 0.008841
0.274842 -0.283906 0.301287 0.425240 -0.902168 -0.072549 0.984671 0.057116
0.156592 -0.339087 0.294377 0.425240 -0.902168 -0.072549 0.483746 0.057446
0.156731 -0.338370 0.286276 0.425240 -0.902168 -0.072549 0.483731 0.009171
0.258152 -0.248498 0.304134 -0.017069 -0.088135 0.995962 0.772084 0.337840
0.139903 -0.303680 0.297224 -0.017069 -0.088135 0.995962 0.486769 0.336957
0.156592 -0.339087 0.294377 -0.017069 -0.088135 0.995962 0.487070 0.204103
0.274842 -0.283906 0.301287 -0.017069 -0.088135 0.995962 0.772385 0.204987
0.258291 -0.247781 0.296033 0.017069 0.088135 -0.995962 0.773011 0.338640
0.274981 -0.283189 0.293186 0.017069 0.088135 -0.995962 0.773312 0.205787
0.156731 -0.338370 0.286276 0.017069 0.088135 -0.995962 0.487997 0.204903
0.140042 -0.302963 0.289123 0.017069 0.088135 -0.995962 0.487696 0.337756
0.270816 -0.268092 0.243899 0.017069 0.088134 -0.995962 0.773011 0.338640
0.287505 -0.303499 0.241052 0.017069 0.088134 -0.995962 0.773312 0.205787
0.169255 -0.358681 0.234142 0.017069 0.088134 -0.995962 0.487997 0.204903
0.152566 -0.323274 0.236990 0.017069 0.088134 -0.995962 0.487696 0.337756
0.270677 -0.268809 0.252000 -0.017069 -0.088135 0.995962 0.772084 0.337840
0.152427 -0.323991 0.245091 -0.017069 -0.088135 0.995962 0.486769 0.336957
0.169117 -0.359398 0.242243 -0.017069 -0.088135 0.995962 0.487070 0.204103
0.287366 -0.304216 0.249153 -0.017069 -0.088135 0.995962 0.772385 0.204987
0.287505 -0.303499 0.241052 0.425240 -0.902168 -0.072549 0.984656 0.008841
0.287366 -0.304216 0.249153 0.425240 -0.902168 -0.072549 0.984671 0.057116
0.169117 -0.359398 0.242243 0.425240 -0.902168 -0.072549 0.483746 0.057446
0.169255 -0.358681 0.234142 0.425240 -0.902168 -0.072549 0.483731 0.009171
0.270677 -0.268809 0.252000 -0.425240 0.902168 0.072548 0.984373 0.063881
0.270816 -0.268092 0.243899 -0.425240 0.902168 0.072548 0.984358 0.015607
0.152566 -0.323274 0.236990 -0.425240 0.902168 0.072548 0.483433 0.015937
0.152427 -0.323991 0.245091 -0.425240 0.902168 0.072548 0.483448 0.064211
0.281679 -0.285891 0.200126 -0.425240 0.902168 0.072546 0.984373 0.063881
0.281818 -0.285174 0.192025 -0.425240 0.902168 0.072546 0.984358 0.015607
0.163569 -0.340356 0.185116 -0.425240 0.902168 0.072546 0.483433 0.015937
0.163430 -0.341073 0.193217 -0.425240 0.902168 0.072546 0.483448 0.064211
0.298508 -0.320581 0.189178 0.425240 -0.902168 -0.072546 0.984656 0.008841
0.298369 -0.321298 0.197279 0.425240 -0.902168 -0.072546 0.984671 0.057116
0.180119 -0.376480 0.190369 0.425240 -0.902168 -0.072546 0.483746 0.057446
0.180258 -0.375763 0.182268 0.425240 -0.902168 -0.072546 0.483731 0.009171
0.281679 -0.285891 0.200126 -0.017069 -0.088135 0.995962 0.772084 0.337840
0.163430 -0.341073 0.193217 -0.017069 -0.088135 0.995962 0.486769 0.336957
0.180119 -0.376480 0.190369 -0.017069 -0.088135 0.995962 0.487070 0.204103
0.298369 -0.321298 0.197279 -0.017069 -0.088135 0.995962 0.772385 0.204987
0.281818 -0.285174 0.192025 0.017069 0.088134 -0.995962 0.773011 0.338640
0.298508 -0.320581 0.189178 0.017069 0.088134 -0.995962 0.773312 0.205787
0.180258 -0.375763 0.182268 0.017069 0.088134 -0.995962 0.487997 0.204903
0.163569 -0.340356 0.185116 0.017069 0.088134 -0.995962 0.487696 0.337756
0.211067 -0.172781 0.505243 0.017069 0.088135 -0.995962 0.773011 0.338640
0.227757 -0.208189 0.502396 0.017069 0.088135 -0.995962 0.773312 0.205787
0.109507 -0.263370 0.495486 0.017069 0.088135 -0.995962 0.487997 0.204903
0.092818 -0.227963 0.498333 0.017069 0.088135 -0.995962 0.487696 0.337756
0.210928 -0.173498 0.513344 -0.017069 -0.088135 0.995962 0.772084 0.337840
0.092679 -0.228680 0.506434 -0.017069 -0.088135 0.995962 0.486769 0.336957
0.109368 -0.264087 0.503587 -0.017069 -0.088135 0.995962 0.487070 0.204103
0.227618 -0.208906 0.510496 -0.017069 -0.088135 0.995962 0.772385 0.204987
0.227757 -0.208189 0.502396 0.425240 -0.902168 -0.072547 0.984656 0.008841
0.227618 -0.208906 0.510496 0.425240 -0.902168 -0.072547 0.984671 0.057116
0.109368 -0.264087 0.503587 0.425240 -0.902168 -0.072547 0.483746 0.057446
0.109507 -0.263370 0.495486 0.425240 -0.902168 -0.072547 0.483731 0.009171
0.210928 -0.173498 0.513344 -0.425240 0.902168 0.072547 0.984373 0.063881
0.211067 -0.172781 0.505243 -0.425240 0.902168 0.072547 0.984358 0.015607
0.092818 -0.227963 0.498333 -0.425240 0.902168 0.072547 0.483433 0.015937
0.092679 -0.228680 0.506434 -0.425240 0.902168 0.072547 0.483448 0.064211
0.199926 -0.156416 0.565218 -0.425240 0.902168 0.072547 0.984373 0.063881
0.200065 -0.155699 0.557117 -0.425240 0.902168 0.072547 0.984358 0.015607
0.081815 -0.210881 0.550207 -0.425240 0.902168 0.072547 0.483433 0.015937
0.081676 -0.211598 0.558308 -0.425240 0.902168 0.072547 0.483448 0.064211
0.216754 -0.191107 0.554269 0.425240 -0.902168 -0.072548 0.984656 0.008841
0.216615 -0.191824 0.562370 0.425240 -0.902168 -0.072548 0.984671 0.057116
0.098366 -0.247005 0.555461 0.425240 -0.902168 -0.072548 0.483746 0.057446
0.098504 -0.246288 0.547360 0.425240 -0.902168 -0.072548 0.483731 0.009171
0.199926 -0.156416 0.565218 -0.017069 -0.088135 0.995962 0.772084 0.337840
0.081676 -0.211598 0.558308 -0.017069 -0.088135 0.995962 0.486769 0.336957
0.098366 -0.247005 0.555461 -0.017069 -0.088135 0.995962 0.487070 0.204103
0.216615 -0.191824 0.562370 -0.017069 -0.088135 0.995962 0.772385 0.204987
0.200065 -0.155699 0.557117 0.017069 0.088135 -0.995962 0.773011 0.338640
0.216754 -0.191107 0.554269 0.017069 0.088135 -0.995962 0.773312 0.205787
0.098504 -0.246288 0.547360 0.017069 0.088135 -0.995962 0.487997 0.204903
0.081815 -0.210881 0.550207 0.017069 0.088135 -0.995962 0.487696 0.337756
0.187540 -0.135388 0.609250 0.017069 0.088135 -0.995962 0.773011 0.338640
0.204230 -0.170796 0.606403 0.017069 0.088135 -0.995962 0.773312 0.205787
0.085980 -0.225978 0.599493 0.017069 0.088135 -0.995962 0.487997 0.204903
0.069291 -0.190570 0.602341 0.017069 0.088135 -0.995962 0.487696 0.337756
0.187401 -0.136105 0.617351 -0.017069 -0.088135 0.995962 0.772084 0.337840
0.069152 -0.191287 0.610442 -0.017069 -0.088135 0.995962 0.486769 0.336957
0.085841 -0.226695 0.607594 -0.017069 -0.088135 0.995962 0.487070 0.204103
0.204091 -0.171513 0.614504 -0.017069 -0.088135 0.995962 0.772385 0.204987
0.204230 -0.170796 0.606403 0.425240 -0.902168 -0.072549 0.984656 0.008841
0.204091 -0.171513 0.614504 0.425240 -0.902168 -0.072549 0.984671 0.057116
0.085841 -0.226695 0.607594 0.425240 -0.902168 -0.072549 0.483746 0.057446
0.085980 -0.225978 0.599493 0.425240 -0.902168 -0.072549 0.483731 0.009171
0.187401 -0.136105 0.617351 -0.425240 0.902168 0.072549 0.984373 0.063881
0.187540 -0.135388 0.609250 -0.425240 0.902168 0.072549 0.984358 0.015607
0.069291 -0.190570 0.602341 -0.425240 0.902168 0.072549 0.483433 0.015937
0.069152 -0.191287 0.610442 -0.425240 0.902168 0.072549 0.483448 0.064211
0.222289 -0.191340 0.461409 -0.425240 0.902168 0.072548 0.984373 0.063881
0.222428 -0.190623 0.453308 -0.425240 0.902168 0.072548 0.984358 0.015607
0.104179 -0.245805 0.446398 -0.425240 0.902168 0.072548 0.483433 0.015937
0.104040 -0.246522 0.454499 -0.425240 0.902168 0.072548 0.483448 0.064211
0.239118 -0.226031 0.450460 0.425240 -0.902168 -0.072546 0.984656 0.008841
0.238979 -0.226748 0.458561 0.425240 -0.902168 -0.072546 0.984671 0.057116
0.120729 -0.281930 0.451652 0.425240 -0.902168 -0.072546 0.483746 0.057446
0.120868 -0.281213 0.443551 0.425240 -0.902168 -0.072546 0.483731 0.009171
0.222289 -0.191340 0.461409 -0.017069 -0.088135 0.995962 0.772084 0.337840
0.104040 -0.246522 0.454499 -0.017069 -0.088135 0.995962 0.486769 0.336957
0.120729 -0.281930 0.451652 -0.017069 -0.088135 0.995962 0.487070 0.204103
0.238979 -0.226748 0.458561 -0.017069 -0.088135 0.995962 0.772385 0.204987
0.222428 -0.190623 0.453308 0.017069 0.088134 -0.995962 0.773011 0.338640
0.239118 -0.226031 0.450460 0.017069 0.088134 -0.995962 0.773312 0.205787
0.120868 -0.281213 0.443551 0.017069 0.088134 -0.995962 0.487997 0.204903
0.104179 -0.245805 0.446398 0.017069 0.088134 -0.995962 0.487696 0.337756
0.234953 -0.210934 0.401174 0.017069 0.088134 -0.995962 0.773011 0.338640
0.251642 -0.246342 0.398327 0.017069 0.088134 -0.995962 0.773312 0.205787
0.133392 -0.301523 0.391417 0.017069 0.088134 -0.995962 0.487997 0.204903
0.116703 -0.266116 0.394264 0.017069 0.088134 -0.995962 0.487696 0.337756
0.234814 -0.211651 0.409275 -0.017069 -0.088135 0.995962 0.772084 0.337840
0.116564 -0.266833 0.402365 -0.017069 -0.088135 0.995962 0.486769 0.336957
0.133254 -0.302240 0.399518 -0.017069 -0.088135 0.995962 0.487070 0.204103
0.251503 -0.247059 0.406428 -0.017069 -0.088135 0.995962 0.772385 0.204987
0.251642 -0.246342 0.398327 0.425240 -0.902168 -0.072546 0.984656 0.008841
0.251503 -0.247059 0.406428 0.425240 -0.902168 -0.072546 0.984671 0.057116
0.133254 -0.302240 0.399518 0.425240 -0.902168 -0.072546 0.483746 0.057446
0.133392 -0.301523 0.391417 0.425240 -0.902168 -0.072546 0.483731 0.009171
0.234814 -0.211651 0.409275 -0.425240 0.902168 0.072548 0.984373 0.063881
0.234953 -0.210934 0.401174 -0.425240 0.902168 0.072548 0.984358 0.015607
0.116703 -0.266116 0.394264 -0.425240 0.902168 0.072548 0.483433 0.015937
0.116564 -0.266833 0.402365 -0.425240 0.902168 0.072548 0.483448 0.064211
0.245816 -0.228733 0.357401 -0.425240 0.902168 0.072548 0.984373 0.063881
0.245955 -0.228016 0.349300 -0.425240 0.902168 0.072548 0.984358 0.015607
0.127706 -0.283198 0.342390 -0.425240 0.902168 0.072548 0.483433 0.015937
0.127567 -0.283915 0.350491 -0.425240 0.902168 0.072548 0.483448 0.064211
0.262645 -0.263424 0.346453 0.425240 -0.902168 -0.072548 0.984656 0.008841
0.262506 -0.264141 0.354554 0.425240 -0.902168 -0.072548 0.984671 0.057116
0.144256 -0.319322 0.347644 0.425240 -0.902168 -0.072548 0.483746 0.057446
0.144395 -0.318605 0.339543 0.425240 -0.902168 -0.072548 0.483731 0.009171
0.245816 -0.228733 0.357401 -0.017069 -0.088134 0.995962 0.772084 0.337840
0.127567 -0.283915 0.350491 -0.017069 -0.088134 0.995962 0.486769 0.336957
0.144256 -0.319322 0.347644 -0.017069 -0.088134 0.995962 0.487070 0.204103
0.262506 -0.264141 0.354554 -0.017069 -0.088134 0.995962 0.772385 0.204987
0.245955 -0.228016 0.349300 0.017069 0.088135 -0.995962 0.773011 0.338640
0.262645 -0.263424 0.346453 0.017069 0.088135 -0.995962 0.773312 0.205787
0.144395 -0.318605 0.339543 0.017069 0.088135 -0.995962 0.487997 0.204903
0.127706 -0.283198 0.342390 0.017069 0.088135 -0.995962 0.487696 0.337756
-0.175591 0.032029 0.633702 -0.298807 0.640828 0.707083 0.873803 0.256965
-0.045367 -0.247237 0.633702 0.298807 -0.640828 0.707083 0.873803 0.141425
0.230960 -0.118383 0.633702 0.767235 -0.279244 0.577349 0.988127 0.141425
0.100736 0.160883 0.633702 0.279244 0.767235 0.577349 0.988127 0.256965
-0.175591 0.032029 0.008773 -0.422590 0.906278 0.000000 0.988718 0.277024
-0.175591 0.032029 0.633702 -0.298807 0.640828 0.707083 0.988718 0.414286
0.100736 0.160883 0.633702 0.279244 0.767235 0.577349 0.921750 0.414286
0.100736 0.160883 0.008773 0.341990 0.939665 0.000000 0.921750 0.277025
0.230960 -0.118383 0.633702 0.767235 -0.279244 0.577349 0.854070 0.414286
0.230960 -0.118383 0.008773 0.939665 -0.341990 0.000000 0.854070 0.277025
-0.045367 -0.247237 0.633702 0.298807 -0.640828 0.707083 0.787102 0.414286
-0.045367 -0.247237 0.008773 0.422590 -0.906278 0.000000 0.787102 0.277024
-0.669633 0.039406 2.663980 -0.737144 0.675680 -0.000488 0.979401 0.897770
-0.750599 -0.094022 2.663980 -0.958373 0.061342 0.278787 0.979338 0.981886
-0.750914 -0.094161 2.796062 -0.795618 -0.269387 0.542558 0.871548 0.981806
-0.669948 0.039268 2.796062 -0.567766 0.519974 0.638142 0.871610 0.897691
-0.543769 0.131694 2.663980 -0.422437 0.906369 0.000000 0.979464 0.813654
-0.544084 0.131555 2.796062 -0.325449 0.697378 0.638539 0.871671 0.813574
-0.392169 0.168790 2.663980 0.229408 0.931944 0.280709 0.979527 0.729537
-0.392484 0.168651 2.796062 0.494919 0.677206 0.544420 0.871733 0.729457
-0.104485 0.064081 2.663980 0.693564 0.720359 -0.000336 0.979623 0.609650
-0.237913 0.145047 2.663980 0.061953 0.958037 0.279824 0.979561 0.693771
-0.238229 0.144908 2.796062 -0.270058 0.794671 0.543626 0.871764 0.693694
-0.104801 0.063942 2.796062 0.519333 0.566881 0.639454 0.871824 0.609571
-0.012198 -0.061782 2.663980 0.906278 0.422590 -0.001679 0.979686 0.525527
-0.012514 -0.061921 2.796062 0.696707 0.324870 0.639546 0.871886 0.525447
0.024898 -0.213382 2.663980 0.937742 -0.201636 0.282785 0.979749 0.441404
0.024583 -0.213521 2.796062 0.676534 -0.496261 0.544023 0.871949 0.441324
-0.079811 -0.501066 2.663980 0.737358 -0.675466 0.000488 0.979618 0.609665
0.001156 -0.367638 2.663980 0.957762 -0.061647 0.280801 0.979556 0.693785
0.000840 -0.367777 2.796062 0.794488 0.268746 0.544542 0.871761 0.693705
-0.080126 -0.501205 2.796062 0.566973 -0.519822 0.638936 0.871823 0.609586
-0.205674 -0.593353 2.663980 0.422742 -0.906217 0.000000 0.979680 0.525545
-0.205990 -0.593492 2.796062 0.324992 -0.697531 0.638569 0.871885 0.525466
-0.357274 -0.630449 2.663980 -0.229438 -0.932493 0.278878 0.979742 0.441426
-0.357589 -0.630588 2.796062 -0.496475 -0.677450 0.542680 0.871946 0.441346
-0.644958 -0.525740 2.663980 -0.675527 -0.737297 -0.001129 0.871886 0.525466
-0.511530 -0.606707 2.663980 -0.061007 -0.958098 0.279763 0.871948 0.441346
-0.511845 -0.606846 2.796062 0.268075 -0.795434 0.543474 0.979743 0.441426
-0.645273 -0.525879 2.796062 -0.520493 -0.567858 0.637623 0.979682 0.525545
-0.737245 -0.399877 2.663980 -0.906278 -0.422620 -0.001221 0.871824 0.609585
-0.737560 -0.400016 2.796062 -0.698202 -0.325571 0.637562 0.979620 0.609665
-0.774341 -0.248277 2.663980 -0.932218 0.229957 0.279336 0.871762 0.693705
-0.774656 -0.248416 2.796062 -0.678121 0.495132 0.543077 0.979558 0.693784
-0.669948 0.039268 2.796062 -0.567766 0.519974 0.638142 0.797251 0.861779
-0.750914 -0.094161 2.796062 -0.795618 -0.269387 0.542558 0.771914 0.922560
-0.696781 -0.113863 2.800728 0.247108 -0.748405 0.615467 0.743891 0.903745
-0.627475 0.000349 2.800728 0.458327 -0.419691 0.783410 0.764160 0.855119
-0.544084 0.131555 2.796062 -0.325449 0.697378 0.638539 0.797399 0.795928
-0.519738 0.079345 2.800728 0.263009 -0.563494 0.783105 0.764279 0.802439
-0.392484 0.168651 2.796062 0.494919 0.677206 0.544420 0.772336 0.735033
-0.389972 0.111099 2.800728 0.638203 -0.461745 0.615986 0.744228 0.753723
-0.104801 0.063942 2.796062 0.519333 0.566881 0.639454 0.665096 0.663028
-0.238229 0.144908 2.796062 -0.270058 0.794671 0.543626 0.725877 0.688365
-0.257931 0.090776 2.800728 -0.748741 -0.248238 0.614612 0.707061 0.716389
-0.143719 0.021470 2.800728 -0.420667 -0.459212 0.782373 0.658436 0.696119
-0.012514 -0.061921 2.796062 0.696707 0.324870 0.639546 0.599245 0.662880
-0.064723 -0.086267 2.800728 -0.564501 -0.263222 0.782311 0.605756 0.696001
0.024583 -0.213521 2.796062 0.676534 -0.496261 0.544023 0.538350 0.687943
-0.032970 -0.216034 2.800728 -0.462111 -0.639149 0.614704 0.557040 0.716051
-0.080126 -0.501205 2.796062 0.566973 -0.519822 0.638936 0.466345 0.795184
0.000840 -0.367777 2.796062 0.794488 0.268746 0.544542 0.491682 0.734402
-0.053293 -0.348074 2.800728 -0.248665 0.747765 0.615589 0.519705 0.753218
-0.122598 -0.462286 2.800728 -0.458632 0.420545 0.782769 0.499436 0.801843
-0.205990 -0.593492 2.796062 0.324992 -0.697531 0.638569 0.466197 0.861034
-0.230335 -0.541282 2.800728 -0.262612 0.563707 0.783074 0.499317 0.854524
-0.357589 -0.630588 2.796062 -0.496475 -0.677450 0.542680 0.491260 0.921929
-0.360102 -0.573036 2.800728 -0.639607 0.461013 0.615070 0.519368 0.903239
-0.645273 -0.525879 2.796062 -0.520493 -0.567858 0.637623 0.598501 0.993934
-0.511845 -0.606846 2.796062 0.268075 -0.795434 0.543474 0.537719 0.968597
-0.492142 -0.552713 2.800728 0.747429 0.247536 0.616474 0.556535 0.940574
-0.606354 -0.483407 2.800728 0.419568 0.457747 0.783837 0.605160 0.960843
-0.737560 -0.400016 2.796062 -0.698202 -0.325571 0.637562 0.664351 0.994082
-0.685350 -0.375670 2.800728 0.562700 0.262368 0.783898 0.657841 0.960962
-0.774656 -0.248416 2.796062 -0.678121 0.495132 0.543077 0.725246 0.969019
-0.717104 -0.245903 2.800728 0.460616 0.638661 0.616352 0.706556 0.940911
-0.237913 0.145047 2.663980 0.061953 0.958037 0.279824 0.725877 0.688365
-0.392169 0.168790 2.663980 0.229408 0.931944 0.280709 0.772336 0.735033
-0.389634 0.111247 2.659402 0.367412 -0.869961 0.328806 0.744228 0.753723
-0.257594 0.090924 2.659402 -0.612629 -0.719321 0.327433 0.707061 0.716389
0.001156 -0.367638 2.663980 0.957762 -0.061647 0.280801 0.491682 0.734402
0.024898 -0.213382 2.663980 0.937742 -0.201636 0.282785 0.538350 0.687943
-0.032632 -0.215885 2.659402 -0.870022 -0.367962 0.328043 0.557040 0.716051
-0.052955 -0.347925 2.659402 -0.719047 0.612171 0.328929 0.519705 0.753218
-0.511530 -0.606707 2.663980 -0.061007 -0.958098 0.279763 0.537719 0.968597
-0.357274 -0.630449 2.663980 -0.229438 -0.932493 0.278878 0.491260 0.921929
-0.359765 -0.572887 2.659402 -0.367626 0.870876 0.326151 0.519368 0.903239
-0.491805 -0.552564 2.659402 0.611896 0.719901 0.327525 0.556535 0.940574
-0.774341 -0.248277 2.663980 -0.932218 0.229957 0.279336 0.725246 0.969019
-0.716767 -0.245755 2.659402 0.870815 0.367107 0.326914 0.706556 0.940911
-0.696444 -0.113715 2.659402 0.720206 -0.612354 0.326029 0.743891 0.903745
-0.750599 -0.094022 2.663980 -0.958373 0.061342 0.278787 0.771914 0.922560
-0.052955 -0.347925 2.659402 -0.719047 0.612171 0.328929 0.979525 0.736903
-0.053293 -0.348074 2.800728 -0.248665 0.747765 0.615589 0.871729 0.736823
-0.357274 -0.630449 2.663980 -0.229438 -0.932493 0.278878 0.979344 0.981908
-0.357589 -0.630588 2.796062 -0.496475 -0.677450 0.542680 0.871549 0.981829
-0.360102 -0.573036 2.800728 -0.639607 0.461013 0.615070 0.871580 0.938710
-0.359765 -0.572887 2.659402 -0.367626 0.870876 0.326151 0.979376 0.938790
-0.511530 -0.606707 2.663980 -0.061007 -0.958098 0.279763 0.871549 0.981828
-0.491805 -0.552564 2.659402 0.611896 0.719901 0.327525 0.871581 0.938710
-0.492142 -0.552713 2.800728 0.747429 0.247536 0.616474 0.979376 0.938790
-0.511845 -0.606846 2.796062 0.268075 -0.795434 0.543474 0.979344 0.981908
-0.717104 -0.245903 2.800728 0.460616 0.638661 0.616352 0.979526 0.736903
-0.716767 -0.245755 2.659402 0.870815 0.367107 0.326914 0.871731 0.736823
-0.750599 -0.094022 2.663980 -0.958373 0.061342 0.278787 0.979749 0.441406
-0.696444 -0.113715 2.659402 0.720206 -0.612354 0.326029 0.979716 0.484526
-0.696781 -0.113863 2.800728 0.247108 -0.748405 0.615467 0.871916 0.484444
-0.750914 -0.094161 2.796062 -0.795618 -0.269387 0.542558 0.871949 0.441324
-0.389972 0.111099 2.800728 0.638203 -0.461745 0.615986 0.871763 0.686339
-0.389634 0.111247 2.659402 0.367412 -0.869961 0.328806 0.979561 0.686419
-0.257594 0.090924 2.659402 -0.612629 -0.719321 0.327433 0.979529 0.736889
-0.257931 0.090776 2.800728 -0.748741 -0.248238 0.614612 0.871734 0.736812
0.024898 -0.213382 2.663980 0.937742 -0.201636 0.282785 0.979351 0.981883
0.024583 -0.213521 2.796062 0.676534 -0.496261 0.544023 0.871561 0.981806
-0.032970 -0.216034 2.800728 -0.462111 -0.639149 0.614704 0.871592 0.938690
-0.032632 -0.215885 2.659402 -0.870022 -0.367962 0.328043 0.979382 0.938767
-0.122261 -0.462137 2.659401 -0.737480 0.675344 0.000092 0.979475 0.804199
-0.122598 -0.462286 2.800728 -0.458632 0.420545 0.782769 0.871680 0.804119
-0.229998 -0.541133 2.659401 -0.422926 0.906125 0.000000 0.979426 0.871494
-0.230335 -0.541282 2.800728 -0.262612 0.563707 0.783074 0.871630 0.871415
-0.606017 -0.483258 2.659401 0.675466 0.737358 -0.000244 0.871630 0.871414
-0.606354 -0.483407 2.800728 0.419568 0.457747 0.783837 0.979426 0.871494
-0.685013 -0.375521 2.659401 0.906278 0.422620 -0.000275 0.871680 0.804119
-0.685350 -0.375670 2.800728 0.562700 0.262368 0.783898 0.979476 0.804199
-0.627475 0.000349 2.800728 0.458327 -0.419691 0.783410 0.871865 0.551742
-0.627138 0.000497 2.659401 0.737053 -0.675832 -0.000092 0.979665 0.551824
-0.519401 0.079494 2.659401 0.422285 -0.906430 0.000000 0.979613 0.619122
-0.519738 0.079345 2.800728 0.263009 -0.563494 0.783105 0.871814 0.619040
-0.143382 0.021619 2.659401 -0.675680 -0.737175 0.000244 0.979479 0.804183
-0.143719 0.021470 2.800728 -0.420667 -0.459212 0.782373 0.871687 0.804105
-0.064386 -0.086118 2.659401 -0.906308 -0.422590 0.000275 0.979430 0.871475
-0.064723 -0.086267 2.800728 -0.564501 -0.263222 0.782311 0.871639 0.871398
-0.750914 -0.094161 0.006883 -0.939695 0.341990 0.000092 0.313709 0.277735
-0.750599 -0.094022 2.663980 -0.958373 0.061342 0.278787 0.313709 0.994497
-0.669633 0.039406 2.663980 -0.737144 0.675680 -0.000488 0.286134 0.994497
-0.669948 0.039268 0.006883 -0.737266 0.675558 0.000031 0.286134 0.277735
-0.543769 0.131694 2.663980 -0.422437 0.906369 0.000000 0.258560 0.994497
-0.544084 0.131555 0.006883 -0.422620 0.906278 0.000000 0.258560 0.277735
-0.392169 0.168790 2.663980 0.229408 0.931944 0.280709 0.230985 0.994497
-0.392484 0.168651 0.006883 -0.043611 0.999023 -0.000031 0.230985 0.277735
-0.237913 0.145047 2.663980 0.061953 0.958037 0.279824 0.203411 0.994497
-0.238229 0.144908 0.006883 0.341990 0.939695 -0.000061 0.203411 0.277735
-0.104485 0.064081 2.663980 0.693564 0.720359 -0.000336 0.175836 0.994497
-0.104801 0.063942 0.006883 0.711203 0.702933 -0.003082 0.175836 0.277735
-0.012198 -0.061782 2.663980 0.906278 0.422590 -0.001679 0.148526 0.994497
-0.040599 -0.075018 0.006883 0.906278 0.422590 -0.005951 0.148526 0.277735
0.024898 -0.213382 2.663980 0.937742 -0.201636 0.282785 0.121217 0.994497
0.024583 -0.213521 0.006883 0.995636 0.092959 -0.003113 0.121216 0.277735
0.001156 -0.367638 2.663980 0.957762 -0.061647 0.280801 0.093642 0.994497
0.000840 -0.367777 0.006883 0.939665 -0.342021 -0.000092 0.093642 0.277735
-0.079811 -0.501066 2.663980 0.737358 -0.675466 0.000488 0.066067 0.994497
-0.080126 -0.501205 0.006883 0.737266 -0.675588 -0.000031 0.066067 0.277735
-0.205674 -0.593353 2.663980 0.422742 -0.906217 0.000000 0.038493 0.994497
-0.205990 -0.593492 0.006883 0.422590 -0.906308 0.000000 0.038493 0.277735
-0.357274 -0.630449 2.663980 -0.229438 -0.932493 0.278878 0.010918 0.994497
-0.357589 -0.630588 0.006883 0.043580 -0.999023 0.000031 0.010918 0.277735
-0.357589 -0.630588 0.006883 0.043580 -0.999023 0.000031 0.451582 0.277735
-0.357274 -0.630449 2.663980 -0.229438 -0.932493 0.278878 0.451582 0.994497
-0.511530 -0.606707 2.663980 -0.061007 -0.958098 0.279763 0.424007 0.994497
-0.511845 -0.606846 0.006883 -0.342021 -0.939665 0.000061 0.424007 0.277735
-0.644958 -0.525740 2.663980 -0.675527 -0.737297 -0.001129 0.396433 0.994497
-0.645273 -0.525879 0.006883 -0.675588 -0.737266 0.000092 0.396433 0.277735
-0.737245 -0.399877 2.663980 -0.906278 -0.422620 -0.001221 0.368858 0.994497
-0.737560 -0.400016 0.006883 -0.906308 -0.422590 0.000122 0.368858 0.277735
-0.774341 -0.248277 2.663980 -0.932218 0.229957 0.279336 0.341284 0.994497
-0.774656 -0.248416 0.006883 -0.999023 -0.043611 0.000092 0.341283 0.277735
-0.032632 -0.215885 2.659402 -0.870022 -0.367962 0.328043 0.688694 0.651813
-0.064386 -0.086118 2.659401 -0.906308 -0.422590 0.000275 0.671480 0.651822
-0.064723 -0.086267 2.544373 -0.675314 -0.314890 0.666890 0.671482 0.637000
-0.032970 -0.216034 2.544374 -0.744499 -0.032380 0.666799 0.688695 0.636992
-0.143382 0.021619 2.659401 -0.675680 -0.737175 0.000244 0.654265 0.651807
-0.143719 0.021470 2.544373 -0.503372 -0.549516 0.666799 0.654268 0.636984
-0.257594 0.090924 2.659402 -0.612629 -0.719321 0.327433 0.637048 0.651772
-0.257931 0.090776 2.544374 -0.254738 -0.700583 0.666524 0.637051 0.636948
-0.389634 0.111247 2.659402 0.367412 -0.869961 0.328806 0.619830 0.651722
-0.519401 0.079494 2.659401 0.422285 -0.906430 0.000000 0.602611 0.651663
-0.519738 0.079345 2.544373 0.315622 -0.676168 0.665670 0.602615 0.636837
-0.389972 0.111099 2.544374 0.032777 -0.745079 0.666128 0.619834 0.636896
-0.627138 0.000497 2.659401 0.737053 -0.675832 -0.000092 0.585392 0.651605
-0.627475 0.000349 2.544373 0.550645 -0.504196 0.665242 0.585396 0.636778
-0.696444 -0.113715 2.659402 0.720206 -0.612354 0.326029 0.568171 0.651555
-0.696781 -0.113863 2.544374 0.701987 -0.255257 0.664846 0.568175 0.636728
-0.716767 -0.245755 2.659402 0.870815 0.367107 0.326914 0.550950 0.651521
-0.685013 -0.375521 2.659401 0.906278 0.422620 -0.000275 0.533728 0.651507
-0.685350 -0.375670 2.544373 0.677236 0.315775 0.664510 0.533733 0.636679
-0.717104 -0.245903 2.544374 0.746452 0.032685 0.664602 0.550954 0.636693
-0.606017 -0.483258 2.659401 0.675466 0.737358 -0.000244 0.516507 0.651514
-0.606354 -0.483407 2.544373 0.504837 0.550768 0.664632 0.516511 0.636686
-0.491805 -0.552564 2.659402 0.611896 0.719901 0.327525 0.499286 0.651541
-0.492142 -0.552713 2.544374 0.255654 0.701804 0.664876 0.499290 0.636713
-0.359765 -0.572887 2.659402 -0.367626 0.870876 0.326151 0.757541 0.651631
-0.229998 -0.541133 2.659401 -0.422926 0.906125 0.000000 0.740330 0.651685
-0.230335 -0.541282 2.544373 -0.315073 0.676382 0.665731 0.740331 0.636866
-0.360102 -0.573036 2.544374 -0.032258 0.745872 0.665273 0.757541 0.636812
-0.122261 -0.462137 2.659401 -0.737480 0.675344 0.000092 0.723119 0.651739
-0.122598 -0.462286 2.544373 -0.549638 0.504013 0.666189 0.723120 0.636919
-0.052955 -0.347925 2.659402 -0.719047 0.612171 0.328929 0.705907 0.651784
-0.053293 -0.348074 2.544374 -0.700400 0.255135 0.666555 0.705908 0.636964
-0.491805 -0.552564 2.659402 0.611896 0.719901 0.327525 0.774752 0.651584
-0.492142 -0.552713 2.544374 0.255654 0.701804 0.664876 0.774752 0.636765
-0.257931 0.090776 2.544374 -0.254738 -0.700583 0.666524 0.699033 0.378511
-0.032970 -0.216034 2.544374 -0.744499 -0.032380 0.666799 0.549321 0.378565
-0.064723 -0.086267 2.544373 -0.675314 -0.314890 0.666890 0.597884 0.358429
-0.143719 0.021470 2.544373 -0.503372 -0.549516 0.666799 0.650456 0.358410
-0.389972 0.111099 2.544374 0.032777 -0.745079 0.666128 0.736220 0.415672
-0.053293 -0.348074 2.544374 -0.700400 0.255135 0.666555 0.512161 0.415752
-0.519738 0.079345 2.544373 0.315622 -0.676168 0.665670 0.756355 0.464234
-0.122598 -0.462286 2.544373 -0.549638 0.504013 0.666189 0.492060 0.464329
-0.627475 0.000349 2.544373 0.550645 -0.504196 0.665242 0.756374 0.516806
-0.230335 -0.541282 2.544373 -0.315073 0.676382 0.665731 0.492079 0.516901
-0.696781 -0.113863 2.544374 0.701987 -0.255257 0.664846 0.736274 0.565383
-0.360102 -0.573036 2.544374 -0.032258 0.745872 0.665273 0.512214 0.565464
-0.717104 -0.245903 2.544374 0.746452 0.032685 0.664602 0.699113 0.602570
-0.492142 -0.552713 2.544374 0.255654 0.701804 0.664876 0.549402 0.602624
-0.685350 -0.375670 2.544373 0.677236 0.315775 0.664510 0.650550 0.622706
-0.606354 -0.483407 2.544373 0.504837 0.550768 0.664632 0.597979 0.622725
4 0 1 2 3
4 4 5 6 7
4 8 9 10 11
4 12 13 14 15
4 16 17 18 19
4 20 21 22 23
4 24 25 26 27
4 28 29 30 31
4 32 33 34 35
4 36 37 38 39
4 40 41 42 43
4 44 45 46 47
4 48 49 50 51
4 52 53 54 55
4 56 57 58 59
4 60 61 62 63
4 64 65 66 67
4 68 69 70 71
4 72 73 74 75
4 76 77 78 79
4 80 81 82 83
4 84 85 86 87
4 88 89 90 91
4 92 93 94 95
4 96 97 98 99
4 100 101 102 103
4 104 105 106 107
4 108 109 110 111
4 112 113 114 115
4 116 117 118 119
4 120 121 122 123
4 124 125 126 127
4 128 129 130 131
4 132 133 134 135
4 136 137 138 139
4 140 141 142 143
4 144 145 146 147
4 148 149 150 151
4 152 153 154 155
4 156 157 158 159
4 160 161 162 163
4 164 165 166 167
4 168 169 170 171
4 172 173 174 175
4 176 177 178 179
4 180 181 182 183
4 184 185 186 187
4 188 189 190 191
4 192 193 194 195
4 196 197 198 199
4 200 201 202 203
4 204 205 206 207
4 208 209 210 211
4 212 213 214 215
4 216 217 218 219
4 220 221 222 223
4 224 225 226 227
4 228 229 230 231
4 232 233 234 235
4 236 237 238 239
4 239 238 240 241
4 241 240 242 243
4 244 245 246 247
4 248 244 247 249
4 250 248 249 251
4 252 253 254 255
4 256 252 255 257
4 258 256 257 259
4 260 261 262 263
4 264 260 263 265
4 266 264 265 267
4 268 269 270 271
4 272 268 271 273
4 274 272 273 275
4 276 277 278 279
4 280 276 279 281
4 282 280 281 283
4 284 285 286 287
4 288 284 287 289
4 290 288 289 291
4 292 293 294 295
4 296 292 295 297
4 298 296 297 299
4 300 301 302 303
4 304 300 303 305
4 306 304 305 307
4 308 309 310 311
4 312 313 314 315
4 316 317 318 319
4 320 321 322 323
4 261 324 325 262
4 326 327 328 329
4 330 331 332 333
4 274 275 334 335
4 336 337 338 339
4 250 251 340 341
4 253 342 343 254
4 344 345 346 347
4 325 324 348 349
4 349 348 350 351
4 351 350 329 328
4 332 331 352 353
4 353 352 354 355
4 355 354 335 334
4 356 338 337 357
4 356 357 358 359
4 359 358 341 340
4 343 342 360 361
4 361 360 362 363
4 363 362 347 346
4 364 365 366 367
4 367 366 368 369
4 369 368 370 371
4 371 370 372 373
4 373 372 374 375
4 375 374 376 377
4 377 376 378 379
4 379 378 380 381
4 381 380 382 383
4 383 382 384 385
4 385 384 386 387
4 388 389 390 391
4 391 390 392 393
4 393 392 394 395
4 395 394 396 397
4 364 397 396 365
4 398 399 400 401
4 399 402 403 400
4 402 404 405 403
4 406 407 408 409
4 407 410 411 408
4 410 412 413 411
4 414 415 416 417
4 415 418 419 416
4 418 420 421 419
4 422 423 424 425
4 423 426 427 424
4 426 428 429 427
4 412 414 417 413
4 430 422 425 431
4 428 398 401 429
4 404 406 409 405
4 432 433 434 435
4 436 437 433 432
4 438 439 437 436
4 440 441 439 438
4 442 443 441 440
4 444 445 443 442
4 446 447 445 444
