solid Exported from Blender-2.72 (sub 0)
facet normal 0.359274 0.867425 0.344233
outer loop
vertex -0.134543 0.340616 2.239628
vertex -0.134543 0.158077 2.699604
vertex -0.112857 0.149095 2.699604
endloop
endfacet
facet normal 0.335168 0.875279 0.348639
outer loop
vertex -0.112857 0.149095 2.699604
vertex 0.006711 0.268663 2.284474
vertex -0.134543 0.340616 2.239628
endloop
endfacet
facet normal 0.864695 0.358127 0.352204
outer loop
vertex 0.006711 0.268663 2.284474
vertex -0.112857 0.149095 2.699604
vertex -0.103875 0.127408 2.699604
endloop
endfacet
facet normal 0.875552 0.335680 0.347458
outer loop
vertex -0.103875 0.127408 2.699604
vertex 0.078664 0.127408 2.239628
vertex 0.006711 0.268663 2.284474
endloop
endfacet
facet normal 0.867425 -0.359274 0.344233
outer loop
vertex 0.078664 0.127408 2.239628
vertex -0.103875 0.127408 2.699604
vertex -0.112857 0.105722 2.699604
endloop
endfacet
facet normal 0.875279 -0.335168 0.348640
outer loop
vertex -0.112857 0.105722 2.699604
vertex 0.006711 -0.013846 2.284474
vertex 0.078664 0.127408 2.239628
endloop
endfacet
facet normal 0.358140 -0.864689 0.352206
outer loop
vertex 0.006711 -0.013846 2.284474
vertex -0.112857 0.105722 2.699604
vertex -0.134543 0.096740 2.699604
endloop
endfacet
facet normal 0.335682 -0.875552 0.347458
outer loop
vertex -0.134543 0.096740 2.699604
vertex -0.134543 -0.085799 2.239628
vertex 0.006711 -0.013846 2.284474
endloop
endfacet
facet normal -0.359274 -0.867425 0.344233
outer loop
vertex -0.134543 -0.085799 2.239628
vertex -0.134543 0.096740 2.699604
vertex -0.156229 0.105722 2.699604
endloop
endfacet
facet normal -0.335166 -0.875279 0.348640
outer loop
vertex -0.156229 0.105722 2.699604
vertex -0.275798 -0.013846 2.284474
vertex -0.134543 -0.085799 2.239628
endloop
endfacet
facet normal -0.864672 -0.358174 0.352213
outer loop
vertex -0.275798 -0.013846 2.284474
vertex -0.156229 0.105722 2.699604
vertex -0.165212 0.127408 2.699604
endloop
endfacet
facet normal -0.875552 -0.335682 0.347458
outer loop
vertex -0.165212 0.127408 2.699604
vertex -0.347751 0.127408 2.239628
vertex -0.275798 -0.013846 2.284474
endloop
endfacet
facet normal 0.000000 -0.000000 1.000000
outer loop
vertex -0.112857 0.149095 2.699604
vertex -0.112857 0.105722 2.699604
vertex -0.103875 0.127408 2.699604
endloop
endfacet
facet normal 0.000000 0.000000 1.000000
outer loop
vertex -0.156229 0.105722 2.699604
vertex -0.134543 0.096740 2.699604
vertex -0.112857 0.105722 2.699604
endloop
endfacet
facet normal 0.000000 -0.000000 1.000000
outer loop
vertex -0.156229 0.149095 2.699604
vertex -0.165212 0.127408 2.699604
vertex -0.156229 0.105722 2.699604
endloop
endfacet
facet normal -0.000000 0.000000 1.000000
outer loop
vertex -0.112857 0.149095 2.699604
vertex -0.134543 0.158077 2.699604
vertex -0.156229 0.149095 2.699604
endloop
endfacet
facet normal 0.000000 -0.000000 1.000000
outer loop
vertex -0.112857 0.149095 2.699604
vertex -0.156229 0.105722 2.699604
vertex -0.112857 0.105722 2.699604
endloop
endfacet
facet normal 0.000000 0.000000 1.000000
outer loop
vertex -0.112857 0.149095 2.699604
vertex -0.156229 0.149095 2.699604
vertex -0.156229 0.105722 2.699604
endloop
endfacet
facet normal -0.358141 0.864688 0.352207
outer loop
vertex -0.275798 0.268663 2.284474
vertex -0.156229 0.149095 2.699604
vertex -0.134543 0.158077 2.699604
endloop
endfacet
facet normal -0.335680 0.875552 0.347458
outer loop
vertex -0.134543 0.158077 2.699604
vertex -0.134543 0.340616 2.239628
vertex -0.275798 0.268663 2.284474
endloop
endfacet
facet normal -0.867418 0.359295 0.344230
outer loop
vertex -0.347751 0.127408 2.239628
vertex -0.165212 0.127408 2.699604
vertex -0.156229 0.149095 2.699604
endloop
endfacet
facet normal -0.875279 0.335165 0.348641
outer loop
vertex -0.156229 0.149095 2.699604
vertex -0.275798 0.268663 2.284474
vertex -0.347751 0.127408 2.239628
endloop
endfacet
facet normal -0.225497 0.225497 -0.947788
outer loop
vertex -0.134543 0.707325 0.358485
vertex -0.714460 0.127408 0.358485
vertex -0.518751 0.511615 0.403332
endloop
endfacet
facet normal -0.225498 -0.225498 -0.947788
outer loop
vertex -0.134543 -0.452509 0.358485
vertex -0.518751 -0.256798 0.403332
vertex -0.714460 0.127408 0.358485
endloop
endfacet
facet normal 0.225499 -0.225499 -0.947787
outer loop
vertex 0.445374 0.127408 0.358485
vertex 0.249663 -0.256798 0.403332
vertex -0.134543 -0.452509 0.358485
endloop
endfacet
facet normal 0.225498 0.225498 -0.947788
outer loop
vertex -0.134543 0.707325 0.358485
vertex 0.249663 0.511615 0.403332
vertex 0.445374 0.127408 0.358485
endloop
endfacet
facet normal 0.000000 0.000000 -1.000000
outer loop
vertex -0.134543 0.707325 0.358485
vertex -0.134543 -0.452509 0.358485
vertex -0.714460 0.127408 0.358485
endloop
endfacet
facet normal 0.000000 0.000000 -1.000000
outer loop
vertex -0.134543 0.707325 0.358485
vertex 0.445374 0.127408 0.358485
vertex -0.134543 -0.452509 0.358485
endloop
endfacet
facet normal 0.379857 0.846529 0.372958
outer loop
vertex -0.134543 0.801903 0.326068
vertex -0.134543 0.619008 0.741197
vertex 0.191151 0.453103 0.786044
endloop
endfacet
facet normal 0.394100 0.844921 0.361655
outer loop
vertex 0.191151 0.453103 0.786044
vertex 0.312323 0.574274 0.370914
vertex -0.134543 0.801903 0.326068
endloop
endfacet
facet normal 0.353588 0.833827 0.423919
outer loop
vertex -0.134543 0.741743 0.708780
vertex -0.134543 0.530691 1.123909
vertex 0.132639 0.394591 1.168756
endloop
endfacet
facet normal 0.378471 0.831123 0.407424
outer loop
vertex 0.132639 0.394591 1.168756
vertex 0.272466 0.534418 0.753626
vertex -0.134543 0.741743 0.708780
endloop
endfacet
facet normal 0.333056 0.837005 0.434161
outer loop
vertex -0.134543 0.657705 1.091492
vertex -0.134543 0.442374 1.506622
vertex 0.074128 0.336079 1.551468
endloop
endfacet
facet normal 0.370889 0.831660 0.413260
outer loop
vertex 0.074128 0.336079 1.551468
vertex 0.216788 0.478740 1.136338
vertex -0.134543 0.657705 1.091492
endloop
endfacet
facet normal 0.319577 0.860272 0.397243
outer loop
vertex -0.134543 0.545749 1.474204
vertex -0.134543 0.354057 1.889334
vertex 0.015616 0.277567 1.934180
endloop
endfacet
facet normal 0.372264 0.849533 0.373782
outer loop
vertex 0.015616 0.277567 1.934180
vertex 0.142616 0.404567 1.519050
vertex -0.134543 0.545749 1.474204
endloop
endfacet
facet normal 0.251424 0.880221 0.402489
outer loop
vertex -0.134543 0.455562 1.856916
vertex -0.134543 0.265740 2.272046
vertex -0.042896 0.219056 2.316892
endloop
endfacet
facet normal 0.360395 0.856821 0.368746
outer loop
vertex -0.042896 0.219056 2.316892
vertex 0.082865 0.344816 1.901762
vertex -0.134543 0.455562 1.856916
endloop
endfacet
facet normal 0.850376 0.383579 0.360177
outer loop
vertex 0.312323 0.574274 0.370914
vertex 0.191151 0.453103 0.786044
vertex 0.357057 0.127408 0.741197
endloop
endfacet
facet normal 0.842006 0.391679 0.370964
outer loop
vertex 0.357057 0.127408 0.741197
vertex 0.539950 0.127408 0.326068
vertex 0.312323 0.574274 0.370914
endloop
endfacet
facet normal 0.840584 0.360290 0.404487
outer loop
vertex 0.272466 0.534418 0.753626
vertex 0.132639 0.394591 1.168756
vertex 0.268739 0.127408 1.123909
endloop
endfacet
facet normal 0.826469 0.374696 0.420180
outer loop
vertex 0.268739 0.127408 1.123909
vertex 0.479791 0.127408 0.708780
vertex 0.272466 0.534418 0.753626
endloop
endfacet
facet normal 0.845816 0.343043 0.408554
outer loop
vertex 0.216788 0.478740 1.136338
vertex 0.074128 0.336079 1.551468
vertex 0.180422 0.127408 1.506622
endloop
endfacet
facet normal 0.826061 0.366093 0.428484
outer loop
vertex 0.180422 0.127408 1.506622
vertex 0.395753 0.127408 1.091492
vertex 0.216788 0.478740 1.136338
endloop
endfacet
facet normal 0.868508 0.332657 0.367470
outer loop
vertex 0.142616 0.404567 1.519050
vertex 0.015616 0.277567 1.934180
vertex 0.092105 0.127408 1.889333
endloop
endfacet
facet normal 0.844501 0.367080 0.389961
outer loop
vertex 0.092105 0.127408 1.889333
vertex 0.283797 0.127408 1.474204
vertex 0.142616 0.404567 1.519050
endloop
endfacet
facet normal 0.891754 0.280475 0.355118
outer loop
vertex 0.082865 0.344816 1.901762
vertex -0.042896 0.219056 2.316892
vertex 0.003788 0.127408 2.272046
endloop
endfacet
facet normal 0.850836 0.353153 0.389052
outer loop
vertex 0.003788 0.127408 2.272046
vertex 0.193610 0.127408 1.856916
vertex 0.082865 0.344816 1.901762
endloop
endfacet
facet normal 0.846528 -0.379860 0.372956
outer loop
vertex 0.539950 0.127408 0.326068
vertex 0.357057 0.127408 0.741197
vertex 0.191151 -0.198286 0.786044
endloop
endfacet
facet normal 0.844921 -0.394099 0.361656
outer loop
vertex 0.191151 -0.198286 0.786044
vertex 0.312323 -0.319457 0.370914
vertex 0.539950 0.127408 0.326068
endloop
endfacet
facet normal 0.833827 -0.353588 0.423920
outer loop
vertex 0.479791 0.127408 0.708780
vertex 0.268739 0.127408 1.123909
vertex 0.132639 -0.139774 1.168756
endloop
endfacet
facet normal 0.831122 -0.378473 0.407424
outer loop
vertex 0.132639 -0.139774 1.168756
vertex 0.272466 -0.279601 0.753626
vertex 0.479791 0.127408 0.708780
endloop
endfacet
facet normal 0.837006 -0.333054 0.434161
outer loop
vertex 0.395753 0.127408 1.091492
vertex 0.180422 0.127408 1.506622
vertex 0.074128 -0.081262 1.551468
endloop
endfacet
facet normal 0.831660 -0.370890 0.413259
outer loop
vertex 0.074128 -0.081262 1.551468
vertex 0.216788 -0.223923 1.136338
vertex 0.395753 0.127408 1.091492
endloop
endfacet
facet normal 0.860274 -0.319570 0.397244
outer loop
vertex 0.283797 0.127408 1.474204
vertex 0.092105 0.127408 1.889333
vertex 0.015616 -0.022751 1.934180
endloop
endfacet
facet normal 0.849534 -0.372263 0.373781
outer loop
vertex 0.015616 -0.022751 1.934180
vertex 0.142616 -0.149750 1.519050
vertex 0.283797 0.127408 1.474204
endloop
endfacet
facet normal 0.880221 -0.251424 0.402489
outer loop
vertex 0.193610 0.127408 1.856916
vertex 0.003788 0.127408 2.272046
vertex -0.042896 0.035761 2.316892
endloop
endfacet
facet normal 0.856822 -0.360393 0.368746
outer loop
vertex -0.042896 0.035761 2.316892
vertex 0.082865 -0.089999 1.901762
vertex 0.193610 0.127408 1.856916
endloop
endfacet
facet normal 0.383578 -0.850377 0.360176
outer loop
vertex 0.312323 -0.319457 0.370914
vertex 0.191151 -0.198286 0.786044
vertex -0.134543 -0.364191 0.741197
endloop
endfacet
facet normal 0.391680 -0.842005 0.370965
outer loop
vertex -0.134543 -0.364191 0.741197
vertex -0.134543 -0.547086 0.326068
vertex 0.312323 -0.319457 0.370914
endloop
endfacet
facet normal 0.360291 -0.840583 0.404487
outer loop
vertex 0.272466 -0.279601 0.753626
vertex 0.132639 -0.139774 1.168756
vertex -0.134543 -0.275874 1.123909
endloop
endfacet
facet normal 0.374696 -0.826470 0.420178
outer loop
vertex -0.134543 -0.275874 1.123909
vertex -0.134543 -0.486926 0.708780
vertex 0.272466 -0.279601 0.753626
endloop
endfacet
facet normal 0.343046 -0.845814 0.408556
outer loop
vertex 0.216788 -0.223923 1.136338
vertex 0.074128 -0.081262 1.551468
vertex -0.134543 -0.187557 1.506622
endloop
endfacet
facet normal 0.366094 -0.826061 0.428484
outer loop
vertex -0.134543 -0.187557 1.506622
vertex -0.134543 -0.402888 1.091492
vertex 0.216788 -0.223923 1.136338
endloop
endfacet
facet normal 0.332657 -0.868508 0.367468
outer loop
vertex 0.142616 -0.149750 1.519050
vertex 0.015616 -0.022751 1.934180
vertex -0.134543 -0.099240 1.889333
endloop
endfacet
facet normal 0.367082 -0.844501 0.389961
outer loop
vertex -0.134543 -0.099240 1.889333
vertex -0.134543 -0.290932 1.474204
vertex 0.142616 -0.149750 1.519050
endloop
endfacet
facet normal 0.280478 -0.891753 0.355118
outer loop
vertex 0.082865 -0.089999 1.901762
vertex -0.042896 0.035761 2.316892
vertex -0.134543 -0.010923 2.272046
endloop
endfacet
facet normal 0.353157 -0.850834 0.389052
outer loop
vertex -0.134543 -0.010923 2.272046
vertex -0.134543 -0.200745 1.856916
vertex 0.082865 -0.089999 1.901762
endloop
endfacet
facet normal -0.379856 -0.846529 0.372959
outer loop
vertex -0.134543 -0.547086 0.326068
vertex -0.134543 -0.364191 0.741197
vertex -0.460238 -0.198286 0.786044
endloop
endfacet
facet normal -0.394100 -0.844921 0.361654
outer loop
vertex -0.460238 -0.198286 0.786044
vertex -0.581409 -0.319457 0.370914
vertex -0.134543 -0.547086 0.326068
endloop
endfacet
facet normal -0.353587 -0.833828 0.423919
outer loop
vertex -0.134543 -0.486926 0.708780
vertex -0.134543 -0.275874 1.123909
vertex -0.401726 -0.139774 1.168756
endloop
endfacet
facet normal -0.378471 -0.831123 0.407423
outer loop
vertex -0.401726 -0.139774 1.168756
vertex -0.541553 -0.279601 0.753626
vertex -0.134543 -0.486926 0.708780
endloop
endfacet
facet normal -0.333056 -0.837005 0.434161
outer loop
vertex -0.134543 -0.402888 1.091492
vertex -0.134543 -0.187557 1.506622
vertex -0.343214 -0.081262 1.551468
endloop
endfacet
facet normal -0.370888 -0.831660 0.413260
outer loop
vertex -0.343214 -0.081262 1.551468
vertex -0.485875 -0.223923 1.136338
vertex -0.134543 -0.402888 1.091492
endloop
endfacet
facet normal -0.319575 -0.860273 0.397244
outer loop
vertex -0.134543 -0.290932 1.474204
vertex -0.134543 -0.099240 1.889333
vertex -0.284702 -0.022750 1.934180
endloop
endfacet
facet normal -0.372264 -0.849533 0.373782
outer loop
vertex -0.284702 -0.022750 1.934180
vertex -0.411702 -0.149750 1.519050
vertex -0.134543 -0.290932 1.474204
endloop
endfacet
facet normal -0.251423 -0.880221 0.402489
outer loop
vertex -0.134543 -0.200745 1.856916
vertex -0.134543 -0.010923 2.272046
vertex -0.226190 0.035761 2.316892
endloop
endfacet
facet normal -0.360395 -0.856821 0.368746
outer loop
vertex -0.226190 0.035761 2.316892
vertex -0.351951 -0.089999 1.901762
vertex -0.134543 -0.200745 1.856916
endloop
endfacet
facet normal -0.850377 -0.383578 0.360175
outer loop
vertex -0.581409 -0.319457 0.370914
vertex -0.460238 -0.198286 0.786044
vertex -0.626143 0.127408 0.741197
endloop
endfacet
facet normal -0.842004 -0.391681 0.370965
outer loop
vertex -0.626143 0.127408 0.741197
vertex -0.809039 0.127408 0.326068
vertex -0.581409 -0.319457 0.370914
endloop
endfacet
facet normal -0.840584 -0.360292 0.404486
outer loop
vertex -0.541553 -0.279601 0.753626
vertex -0.401726 -0.139774 1.168756
vertex -0.537827 0.127408 1.123909
endloop
endfacet
facet normal -0.826470 -0.374698 0.420178
outer loop
vertex -0.537827 0.127408 1.123909
vertex -0.748878 0.127408 0.708780
vertex -0.541553 -0.279601 0.753626
endloop
endfacet
facet normal -0.845813 -0.343047 0.408557
outer loop
vertex -0.485875 -0.223923 1.136338
vertex -0.343214 -0.081262 1.551468
vertex -0.449509 0.127408 1.506622
endloop
endfacet
facet normal -0.826062 -0.366093 0.428483
outer loop
vertex -0.449509 0.127408 1.506622
vertex -0.664840 0.127408 1.091492
vertex -0.485875 -0.223923 1.136338
endloop
endfacet
facet normal -0.868505 -0.332662 0.367471
outer loop
vertex -0.411702 -0.149750 1.519050
vertex -0.284702 -0.022750 1.934180
vertex -0.361192 0.127408 1.889333
endloop
endfacet
facet normal -0.844500 -0.367083 0.389961
outer loop
vertex -0.361192 0.127408 1.889333
vertex -0.552884 0.127408 1.474204
vertex -0.411702 -0.149750 1.519050
endloop
endfacet
facet normal -0.891753 -0.280477 0.355119
outer loop
vertex -0.351951 -0.089999 1.901762
vertex -0.226190 0.035761 2.316892
vertex -0.272874 0.127408 2.272046
endloop
endfacet
facet normal -0.850835 -0.353155 0.389052
outer loop
vertex -0.272874 0.127408 2.272046
vertex -0.462697 0.127408 1.856916
vertex -0.351951 -0.089999 1.901762
endloop
endfacet
facet normal -0.383577 0.850378 0.360175
outer loop
vertex -0.581409 0.574274 0.370914
vertex -0.460238 0.453103 0.786044
vertex -0.134543 0.619008 0.741197
endloop
endfacet
facet normal -0.391680 0.842005 0.370965
outer loop
vertex -0.134543 0.619008 0.741197
vertex -0.134543 0.801903 0.326068
vertex -0.581409 0.574274 0.370914
endloop
endfacet
facet normal -0.360291 0.840585 0.404485
outer loop
vertex -0.541553 0.534417 0.753626
vertex -0.401726 0.394591 1.168756
vertex -0.134543 0.530691 1.123909
endloop
endfacet
facet normal -0.374698 0.826470 0.420178
outer loop
vertex -0.134543 0.530691 1.123909
vertex -0.134543 0.741743 0.708780
vertex -0.541553 0.534417 0.753626
endloop
endfacet
facet normal -0.343046 0.845814 0.408556
outer loop
vertex -0.485875 0.478740 1.136338
vertex -0.343214 0.336079 1.551468
vertex -0.134543 0.442374 1.506622
endloop
endfacet
facet normal -0.366093 0.826061 0.428484
outer loop
vertex -0.134543 0.442374 1.506622
vertex -0.134543 0.657705 1.091492
vertex -0.485875 0.478740 1.136338
endloop
endfacet
facet normal -0.332663 0.868505 0.367471
outer loop
vertex -0.411702 0.404567 1.519050
vertex -0.284702 0.277567 1.934180
vertex -0.134543 0.354057 1.889334
endloop
endfacet
facet normal -0.367083 0.844501 0.389960
outer loop
vertex -0.134543 0.354057 1.889334
vertex -0.134543 0.545749 1.474204
vertex -0.411702 0.404567 1.519050
endloop
endfacet
facet normal -0.280478 0.891753 0.355118
outer loop
vertex -0.351951 0.344816 1.901762
vertex -0.226190 0.219056 2.316892
vertex -0.134543 0.265740 2.272046
endloop
endfacet
facet normal -0.353157 0.850834 0.389052
outer loop
vertex -0.134543 0.265740 2.272046
vertex -0.134543 0.455562 1.856916
vertex -0.351951 0.344816 1.901762
endloop
endfacet
facet normal -0.846529 0.379856 0.372959
outer loop
vertex -0.809039 0.127408 0.326068
vertex -0.626143 0.127408 0.741197
vertex -0.460238 0.453103 0.786044
endloop
endfacet
facet normal -0.844921 0.394100 0.361654
outer loop
vertex -0.460238 0.453103 0.786044
vertex -0.581409 0.574274 0.370914
vertex -0.809039 0.127408 0.326068
endloop
endfacet
facet normal -0.833828 0.353587 0.423919
outer loop
vertex -0.748878 0.127408 0.708780
vertex -0.537827 0.127408 1.123909
vertex -0.401726 0.394591 1.168756
endloop
endfacet
facet normal -0.831123 0.378473 0.407422
outer loop
vertex -0.401726 0.394591 1.168756
vertex -0.541553 0.534417 0.753626
vertex -0.748878 0.127408 0.708780
endloop
endfacet
facet normal -0.837006 0.333057 0.434159
outer loop
vertex -0.664840 0.127408 1.091492
vertex -0.449509 0.127408 1.506622
vertex -0.343214 0.336079 1.551468
endloop
endfacet
facet normal -0.831661 0.370886 0.413260
outer loop
vertex -0.343214 0.336079 1.551468
vertex -0.485875 0.478740 1.136338
vertex -0.664840 0.127408 1.091492
endloop
endfacet
facet normal -0.860273 0.319575 0.397244
outer loop
vertex -0.552884 0.127408 1.474204
vertex -0.361192 0.127408 1.889333
vertex -0.284702 0.277567 1.934180
endloop
endfacet
facet normal -0.849533 0.372264 0.373782
outer loop
vertex -0.284702 0.277567 1.934180
vertex -0.411702 0.404567 1.519050
vertex -0.552884 0.127408 1.474204
endloop
endfacet
facet normal -0.880222 0.251421 0.402489
outer loop
vertex -0.462697 0.127408 1.856916
vertex -0.272874 0.127408 2.272046
vertex -0.226190 0.219056 2.316892
endloop
endfacet
facet normal -0.856822 0.360392 0.368746
outer loop
vertex -0.226190 0.219056 2.316892
vertex -0.351951 0.344816 1.901762
vertex -0.462697 0.127408 1.856916
endloop
endfacet
facet normal 0.088613 -0.395753 -0.914072
outer loop
vertex -0.134543 0.265740 2.272046
vertex -0.134543 0.340616 2.239628
vertex 0.006711 0.268663 2.284474
endloop
endfacet
facet normal 0.082356 -0.601591 -0.794548
outer loop
vertex 0.006711 0.268663 2.284474
vertex -0.042896 0.219056 2.316892
vertex -0.134543 0.265740 2.272046
endloop
endfacet
facet normal -0.540999 -0.008579 -0.840980
outer loop
vertex -0.042896 0.219056 2.316892
vertex 0.006711 0.268663 2.284474
vertex 0.078664 0.127408 2.239628
endloop
endfacet
facet normal -0.385754 0.239484 -0.890977
outer loop
vertex 0.078664 0.127408 2.239628
vertex 0.003788 0.127408 2.272046
vertex -0.042896 0.219056 2.316892
endloop
endfacet
facet normal -0.395753 -0.088613 -0.914072
outer loop
vertex 0.003788 0.127408 2.272046
vertex 0.078664 0.127408 2.239628
vertex 0.006711 -0.013846 2.284474
endloop
endfacet
facet normal -0.601591 -0.082356 -0.794548
outer loop
vertex 0.006711 -0.013846 2.284474
vertex -0.042896 0.035761 2.316892
vertex 0.003788 0.127408 2.272046
endloop
endfacet
facet normal -0.008579 0.540998 -0.840980
outer loop
vertex -0.042896 0.035761 2.316892
vertex 0.006711 -0.013846 2.284474
vertex -0.134543 -0.085799 2.239628
endloop
endfacet
facet normal 0.239487 0.385754 -0.890977
outer loop
vertex -0.134543 -0.085799 2.239628
vertex -0.134543 -0.010923 2.272046
vertex -0.042896 0.035761 2.316892
endloop
endfacet
facet normal -0.088612 0.395753 -0.914072
outer loop
vertex -0.134543 -0.010923 2.272046
vertex -0.134543 -0.085799 2.239628
vertex -0.275798 -0.013846 2.284474
endloop
endfacet
facet normal -0.082355 0.601591 -0.794547
outer loop
vertex -0.275798 -0.013846 2.284474
vertex -0.226190 0.035761 2.316892
vertex -0.134543 -0.010923 2.272046
endloop
endfacet
facet normal 0.540994 0.008576 -0.840983
outer loop
vertex -0.226190 0.035761 2.316892
vertex -0.275798 -0.013846 2.284474
vertex -0.347751 0.127408 2.239628
endloop
endfacet
facet normal 0.385749 -0.239490 -0.890978
outer loop
vertex -0.347751 0.127408 2.239628
vertex -0.272874 0.127408 2.272046
vertex -0.226190 0.035761 2.316892
endloop
endfacet
facet normal 0.008579 -0.540999 -0.840980
outer loop
vertex -0.226190 0.219056 2.316892
vertex -0.275798 0.268663 2.284474
vertex -0.134543 0.340616 2.239628
endloop
endfacet
facet normal -0.239487 -0.385754 -0.890977
outer loop
vertex -0.134543 0.340616 2.239628
vertex -0.134543 0.265740 2.272046
vertex -0.226190 0.219056 2.316892
endloop
endfacet
facet normal 0.395749 0.088615 -0.914074
outer loop
vertex -0.272874 0.127408 2.272046
vertex -0.347751 0.127408 2.239628
vertex -0.275798 0.268663 2.284474
endloop
endfacet
facet normal 0.601585 0.082360 -0.794552
outer loop
vertex -0.275798 0.268663 2.284474
vertex -0.226190 0.219056 2.316892
vertex -0.272874 0.127408 2.272046
endloop
endfacet
facet normal 0.041488 -0.303972 -0.951777
outer loop
vertex -0.134543 0.354057 1.889334
vertex -0.134543 0.455562 1.856916
vertex 0.082865 0.344816 1.901762
endloop
endfacet
facet normal 0.031232 -0.459197 -0.887785
outer loop
vertex 0.082865 0.344816 1.901762
vertex 0.015616 0.277567 1.934180
vertex -0.134543 0.354057 1.889334
endloop
endfacet
facet normal -0.414810 -0.023671 -0.909600
outer loop
vertex 0.015616 0.277567 1.934180
vertex 0.082865 0.344816 1.901762
vertex 0.193610 0.127408 1.856916
endloop
endfacet
facet normal -0.301706 0.128465 -0.944707
outer loop
vertex 0.193610 0.127408 1.856916
vertex 0.092105 0.127408 1.889333
vertex 0.015616 0.277567 1.934180
endloop
endfacet
facet normal -0.303964 -0.041494 -0.951779
outer loop
vertex 0.092105 0.127408 1.889333
vertex 0.193610 0.127408 1.856916
vertex 0.082865 -0.089999 1.901762
endloop
endfacet
facet normal -0.459201 -0.031237 -0.887783
outer loop
vertex 0.082865 -0.089999 1.901762
vertex 0.015616 -0.022751 1.934180
vertex 0.092105 0.127408 1.889333
endloop
endfacet
facet normal -0.023674 0.414813 -0.909599
outer loop
vertex 0.015616 -0.022751 1.934180
vertex 0.082865 -0.089999 1.901762
vertex -0.134543 -0.200745 1.856916
endloop
endfacet
facet normal 0.128465 0.301705 -0.944707
outer loop
vertex -0.134543 -0.200745 1.856916
vertex -0.134543 -0.099240 1.889333
vertex 0.015616 -0.022751 1.934180
endloop
endfacet
facet normal -0.041492 0.303964 -0.951779
outer loop
vertex -0.134543 -0.099240 1.889333
vertex -0.134543 -0.200745 1.856916
vertex -0.351951 -0.089999 1.901762
endloop
endfacet
facet normal -0.031235 0.459200 -0.887784
outer loop
vertex -0.351951 -0.089999 1.901762
vertex -0.284702 -0.022750 1.934180
vertex -0.134543 -0.099240 1.889333
endloop
endfacet
facet normal 0.414810 0.023671 -0.909600
outer loop
vertex -0.284702 -0.022750 1.934180
vertex -0.351951 -0.089999 1.901762
vertex -0.462697 0.127408 1.856916
endloop
endfacet
facet normal 0.301708 -0.128462 -0.944706
outer loop
vertex -0.462697 0.127408 1.856916
vertex -0.361192 0.127408 1.889333
vertex -0.284702 -0.022750 1.934180
endloop
endfacet
facet normal 0.023672 -0.414809 -0.909600
outer loop
vertex -0.284702 0.277567 1.934180
vertex -0.351951 0.344816 1.901762
vertex -0.134543 0.455562 1.856916
endloop
endfacet
facet normal -0.128452 -0.301714 -0.944706
outer loop
vertex -0.134543 0.455562 1.856916
vertex -0.134543 0.354057 1.889334
vertex -0.284702 0.277567 1.934180
endloop
endfacet
facet normal 0.303967 0.041492 -0.951779
outer loop
vertex -0.361192 0.127408 1.889333
vertex -0.462697 0.127408 1.856916
vertex -0.351951 0.344816 1.901762
endloop
endfacet
facet normal 0.459200 0.031235 -0.887784
outer loop
vertex -0.351951 0.344816 1.901762
vertex -0.284702 0.277567 1.934180
vertex -0.361192 0.127408 1.889333
endloop
endfacet
facet normal 0.001968 -0.299227 -0.954180
outer loop
vertex -0.134543 0.442374 1.506622
vertex -0.134543 0.545749 1.474204
vertex 0.142616 0.404567 1.519050
endloop
endfacet
facet normal -0.015793 -0.414832 -0.909761
outer loop
vertex 0.142616 0.404567 1.519050
vertex 0.074128 0.336079 1.551468
vertex -0.134543 0.442374 1.506622
endloop
endfacet
facet normal -0.387402 -0.048373 -0.920641
outer loop
vertex 0.074128 0.336079 1.551468
vertex 0.142616 0.404567 1.519050
vertex 0.283797 0.127408 1.474204
endloop
endfacet
facet normal -0.298814 0.052570 -0.952862
outer loop
vertex 0.283797 0.127408 1.474204
vertex 0.180422 0.127408 1.506622
vertex 0.074128 0.336079 1.551468
endloop
endfacet
facet normal -0.299227 -0.001969 -0.954180
outer loop
vertex 0.180422 0.127408 1.506622
vertex 0.283797 0.127408 1.474204
vertex 0.142616 -0.149750 1.519050
endloop
endfacet
facet normal -0.414833 0.015792 -0.909760
outer loop
vertex 0.142616 -0.149750 1.519050
vertex 0.074128 -0.081262 1.551468
vertex 0.180422 0.127408 1.506622
endloop
endfacet
facet normal -0.048374 0.387402 -0.920641
outer loop
vertex 0.074128 -0.081262 1.551468
vertex 0.142616 -0.149750 1.519050
vertex -0.134543 -0.290932 1.474204
endloop
endfacet
facet normal 0.052568 0.298814 -0.952862
outer loop
vertex -0.134543 -0.290932 1.474204
vertex -0.134543 -0.187557 1.506622
vertex 0.074128 -0.081262 1.551468
endloop
endfacet
facet normal -0.001968 0.299227 -0.954180
outer loop
vertex -0.134543 -0.187557 1.506622
vertex -0.134543 -0.290932 1.474204
vertex -0.411702 -0.149750 1.519050
endloop
endfacet
facet normal 0.015793 0.414832 -0.909761
outer loop
vertex -0.411702 -0.149750 1.519050
vertex -0.343214 -0.081262 1.551468
vertex -0.134543 -0.187557 1.506622
endloop
endfacet
facet normal 0.387401 0.048374 -0.920641
outer loop
vertex -0.343214 -0.081262 1.551468
vertex -0.411702 -0.149750 1.519050
vertex -0.552884 0.127408 1.474204
endloop
endfacet
facet normal 0.298814 -0.052568 -0.952862
outer loop
vertex -0.552884 0.127408 1.474204
vertex -0.449509 0.127408 1.506622
vertex -0.343214 -0.081262 1.551468
endloop
endfacet
facet normal 0.048374 -0.387401 -0.920641
outer loop
vertex -0.343214 0.336079 1.551468
vertex -0.411702 0.404567 1.519050
vertex -0.134543 0.545749 1.474204
endloop
endfacet
facet normal -0.052568 -0.298814 -0.952862
outer loop
vertex -0.134543 0.545749 1.474204
vertex -0.134543 0.442374 1.506622
vertex -0.343214 0.336079 1.551468
endloop
endfacet
facet normal 0.299227 0.001968 -0.954180
outer loop
vertex -0.449509 0.127408 1.506622
vertex -0.552884 0.127408 1.474204
vertex -0.411702 0.404567 1.519050
endloop
endfacet
facet normal 0.414832 -0.015793 -0.909761
outer loop
vertex -0.411702 0.404567 1.519050
vertex -0.343214 0.336079 1.551468
vertex -0.449509 0.127408 1.506622
endloop
endfacet
facet normal -0.002290 -0.247296 -0.968937
outer loop
vertex -0.134543 0.530691 1.123909
vertex -0.134543 0.657705 1.091492
vertex 0.216788 0.478740 1.136338
endloop
endfacet
facet normal -0.017657 -0.344011 -0.938800
outer loop
vertex 0.216788 0.478740 1.136338
vertex 0.132639 0.394591 1.168756
vertex -0.134543 0.530691 1.123909
endloop
endfacet
facet normal -0.321436 -0.042989 -0.945955
outer loop
vertex 0.132639 0.394591 1.168756
vertex 0.216788 0.478740 1.136338
vertex 0.395753 0.127408 1.091492
endloop
endfacet
facet normal -0.247131 0.036643 -0.968289
outer loop
vertex 0.395753 0.127408 1.091492
vertex 0.268739 0.127408 1.123909
vertex 0.132639 0.394591 1.168756
endloop
endfacet
facet normal -0.247296 0.002289 -0.968937
outer loop
vertex 0.268739 0.127408 1.123909
vertex 0.395753 0.127408 1.091492
vertex 0.216788 -0.223923 1.136338
endloop
endfacet
facet normal -0.344011 0.017657 -0.938799
outer loop
vertex 0.216788 -0.223923 1.136338
vertex 0.132639 -0.139774 1.168756
vertex 0.268739 0.127408 1.123909
endloop
endfacet
facet normal -0.042989 0.321436 -0.945955
outer loop
vertex 0.132639 -0.139774 1.168756
vertex 0.216788 -0.223923 1.136338
vertex -0.134543 -0.402888 1.091492
endloop
endfacet
facet normal 0.036643 0.247131 -0.968289
outer loop
vertex -0.134543 -0.402888 1.091492
vertex -0.134543 -0.275874 1.123909
vertex 0.132639 -0.139774 1.168756
endloop
endfacet
facet normal 0.002289 0.247296 -0.968937
outer loop
vertex -0.134543 -0.275874 1.123909
vertex -0.134543 -0.402888 1.091492
vertex -0.485875 -0.223923 1.136338
endloop
endfacet
facet normal 0.017657 0.344011 -0.938800
outer loop
vertex -0.485875 -0.223923 1.136338
vertex -0.401726 -0.139774 1.168756
vertex -0.134543 -0.275874 1.123909
endloop
endfacet
facet normal 0.321436 0.042988 -0.945955
outer loop
vertex -0.401726 -0.139774 1.168756
vertex -0.485875 -0.223923 1.136338
vertex -0.664840 0.127408 1.091492
endloop
endfacet
facet normal 0.247133 -0.036642 -0.968289
outer loop
vertex -0.664840 0.127408 1.091492
vertex -0.537827 0.127408 1.123909
vertex -0.401726 -0.139774 1.168756
endloop
endfacet
facet normal 0.042989 -0.321436 -0.945955
outer loop
vertex -0.401726 0.394591 1.168756
vertex -0.485875 0.478740 1.136338
vertex -0.134543 0.657705 1.091492
endloop
endfacet
facet normal -0.036643 -0.247131 -0.968289
outer loop
vertex -0.134543 0.657705 1.091492
vertex -0.134543 0.530691 1.123909
vertex -0.401726 0.394591 1.168756
endloop
endfacet
facet normal 0.247298 -0.002290 -0.968937
outer loop
vertex -0.537827 0.127408 1.123909
vertex -0.664840 0.127408 1.091492
vertex -0.485875 0.478740 1.136338
endloop
endfacet
facet normal 0.344011 -0.017657 -0.938800
outer loop
vertex -0.485875 0.478740 1.136338
vertex -0.401726 0.394591 1.168756
vertex -0.537827 0.127408 1.123909
endloop
endfacet
facet normal -0.023542 -0.255294 -0.966577
outer loop
vertex -0.134543 0.619008 0.741197
vertex -0.134543 0.741743 0.708780
vertex 0.272466 0.534418 0.753626
endloop
endfacet
facet normal -0.040783 -0.334563 -0.941490
outer loop
vertex 0.272466 0.534418 0.753626
vertex 0.191151 0.453103 0.786044
vertex -0.134543 0.619008 0.741197
endloop
endfacet
facet normal -0.318920 -0.058221 -0.945992
outer loop
vertex 0.191151 0.453103 0.786044
vertex 0.272466 0.534418 0.753626
vertex 0.479791 0.127408 0.708780
endloop
endfacet
facet normal -0.255364 0.003050 -0.966840
outer loop
vertex 0.479791 0.127408 0.708780
vertex 0.357057 0.127408 0.741197
vertex 0.191151 0.453103 0.786044
endloop
endfacet
facet normal -0.255294 0.023542 -0.966577
outer loop
vertex 0.357057 0.127408 0.741197
vertex 0.479791 0.127408 0.708780
vertex 0.272466 -0.279601 0.753626
endloop
endfacet
facet normal -0.334562 0.040783 -0.941491
outer loop
vertex 0.272466 -0.279601 0.753626
vertex 0.191151 -0.198286 0.786044
vertex 0.357057 0.127408 0.741197
endloop
endfacet
facet normal -0.058220 0.318920 -0.945992
outer loop
vertex 0.191151 -0.198286 0.786044
vertex 0.272466 -0.279601 0.753626
vertex -0.134543 -0.486926 0.708780
endloop
endfacet
facet normal 0.003051 0.255364 -0.966840
outer loop
vertex -0.134543 -0.486926 0.708780
vertex -0.134543 -0.364191 0.741197
vertex 0.191151 -0.198286 0.786044
endloop
endfacet
facet normal 0.023542 0.255294 -0.966577
outer loop
vertex -0.134543 -0.364191 0.741197
vertex -0.134543 -0.486926 0.708780
vertex -0.541553 -0.279601 0.753626
endloop
endfacet
facet normal 0.040783 0.334563 -0.941490
outer loop
vertex -0.541553 -0.279601 0.753626
vertex -0.460238 -0.198286 0.786044
vertex -0.134543 -0.364191 0.741197
endloop
endfacet
facet normal 0.318922 0.058222 -0.945991
outer loop
vertex -0.460238 -0.198286 0.786044
vertex -0.541553 -0.279601 0.753626
vertex -0.748878 0.127408 0.708780
endloop
endfacet
facet normal 0.255364 -0.003051 -0.966840
outer loop
vertex -0.748878 0.127408 0.708780
vertex -0.626143 0.127408 0.741197
vertex -0.460238 -0.198286 0.786044
endloop
endfacet
facet normal 0.058222 -0.318922 -0.945991
outer loop
vertex -0.460238 0.453103 0.786044
vertex -0.541553 0.534417 0.753626
vertex -0.134543 0.741743 0.708780
endloop
endfacet
facet normal -0.003051 -0.255364 -0.966840
outer loop
vertex -0.134543 0.741743 0.708780
vertex -0.134543 0.619008 0.741197
vertex -0.460238 0.453103 0.786044
endloop
endfacet
facet normal 0.255294 -0.023542 -0.966577
outer loop
vertex -0.626143 0.127408 0.741197
vertex -0.748878 0.127408 0.708780
vertex -0.541553 0.534417 0.753626
endloop
endfacet
facet normal 0.334566 -0.040784 -0.941489
outer loop
vertex -0.541553 0.534417 0.753626
vertex -0.460238 0.453103 0.786044
vertex -0.626143 0.127408 0.741197
endloop
endfacet
facet normal -0.070055 -0.323440 -0.943652
outer loop
vertex -0.134543 0.707325 0.358485
vertex -0.134543 0.801903 0.326068
vertex 0.312323 0.574274 0.370914
endloop
endfacet
facet normal -0.089318 -0.385764 -0.918264
outer loop
vertex 0.312323 0.574274 0.370914
vertex 0.249663 0.511615 0.403332
vertex -0.134543 0.707325 0.358485
endloop
endfacet
facet normal -0.376880 -0.099560 -0.920896
outer loop
vertex 0.249663 0.511615 0.403332
vertex 0.312323 0.574274 0.370914
vertex 0.539950 0.127408 0.326068
endloop
endfacet
facet normal -0.323755 -0.054663 -0.944560
outer loop
vertex 0.539950 0.127408 0.326068
vertex 0.445374 0.127408 0.358485
vertex 0.249663 0.511615 0.403332
endloop
endfacet
facet normal -0.323444 0.070057 -0.943651
outer loop
vertex 0.445374 0.127408 0.358485
vertex 0.539950 0.127408 0.326068
vertex 0.312323 -0.319457 0.370914
endloop
endfacet
facet normal -0.385761 0.089317 -0.918265
outer loop
vertex 0.312323 -0.319457 0.370914
vertex 0.249663 -0.256798 0.403332
vertex 0.445374 0.127408 0.358485
endloop
endfacet
facet normal -0.099562 0.376882 -0.920895
outer loop
vertex 0.249663 -0.256798 0.403332
vertex 0.312323 -0.319457 0.370914
vertex -0.134543 -0.547086 0.326068
endloop
endfacet
facet normal -0.054663 0.323755 -0.944561
outer loop
vertex -0.134543 -0.547086 0.326068
vertex -0.134543 -0.452509 0.358485
vertex 0.249663 -0.256798 0.403332
endloop
endfacet
facet normal 0.070057 0.323443 -0.943651
outer loop
vertex -0.134543 -0.452509 0.358485
vertex -0.134543 -0.547086 0.326068
vertex -0.581409 -0.319457 0.370914
endloop
endfacet
facet normal 0.089319 0.385765 -0.918263
outer loop
vertex -0.581409 -0.319457 0.370914
vertex -0.518751 -0.256798 0.403332
vertex -0.134543 -0.452509 0.358485
endloop
endfacet
facet normal 0.376883 0.099563 -0.920894
outer loop
vertex -0.518751 -0.256798 0.403332
vertex -0.581409 -0.319457 0.370914
vertex -0.809039 0.127408 0.326068
endloop
endfacet
facet normal 0.323752 0.054660 -0.944562
outer loop
vertex -0.809039 0.127408 0.326068
vertex -0.714460 0.127408 0.358485
vertex -0.518751 -0.256798 0.403332
endloop
endfacet
facet normal 0.054660 -0.323752 -0.944562
outer loop
vertex -0.134543 0.801903 0.326068
vertex -0.134543 0.707325 0.358485
vertex -0.518751 0.511615 0.403332
endloop
endfacet
facet normal 0.099562 -0.376883 -0.920895
outer loop
vertex -0.518751 0.511615 0.403332
vertex -0.581409 0.574274 0.370914
vertex -0.134543 0.801903 0.326068
endloop
endfacet
facet normal 0.323440 -0.070056 -0.943652
outer loop
vertex -0.714460 0.127408 0.358485
vertex -0.809039 0.127408 0.326068
vertex -0.581409 0.574274 0.370914
endloop
endfacet
facet normal 0.385766 -0.089319 -0.918263
outer loop
vertex -0.581409 0.574274 0.370914
vertex -0.518751 0.511615 0.403332
vertex -0.714460 0.127408 0.358485
endloop
endfacet
facet normal -0.922507 -0.382120 0.054451
outer loop
vertex -0.224279 0.037673 -0.073124
vertex -0.212795 0.049157 0.202028
vertex -0.245208 0.127408 0.202028
endloop
endfacet
facet normal -0.922507 -0.382120 0.054451
outer loop
vertex -0.245208 0.127408 0.202028
vertex -0.261449 0.127408 -0.073124
vertex -0.224279 0.037673 -0.073124
endloop
endfacet
facet normal 0.382117 0.922508 -0.054452
outer loop
vertex -0.134543 0.238073 0.202028
vertex -0.134543 0.254314 0.477179
vertex -0.044807 0.217144 0.477179
endloop
endfacet
facet normal 0.382120 0.922507 -0.054453
outer loop
vertex -0.044807 0.217144 0.477179
vertex -0.056292 0.205660 0.202028
vertex -0.134543 0.238073 0.202028
endloop
endfacet
facet normal -0.382115 0.922509 0.054451
outer loop
vertex -0.224279 0.217144 -0.073124
vertex -0.212795 0.205660 0.202028
vertex -0.134543 0.238073 0.202028
endloop
endfacet
facet normal -0.382117 0.922508 0.054452
outer loop
vertex -0.134543 0.238073 0.202028
vertex -0.134543 0.254314 -0.073124
vertex -0.224279 0.217144 -0.073124
endloop
endfacet
facet normal 0.922512 0.382108 -0.054455
outer loop
vertex -0.056292 0.205660 0.202028
vertex -0.044807 0.217144 0.477179
vertex -0.007638 0.127408 0.477179
endloop
endfacet
facet normal 0.922509 0.382115 -0.054452
outer loop
vertex -0.007638 0.127408 0.477179
vertex -0.023879 0.127408 0.202028
vertex -0.056292 0.205660 0.202028
endloop
endfacet
facet normal 0.382119 -0.922507 0.054453
outer loop
vertex -0.044807 0.037673 -0.073124
vertex -0.056292 0.049157 0.202028
vertex -0.134543 0.016744 0.202028
endloop
endfacet
facet normal 0.382117 -0.922509 0.054452
outer loop
vertex -0.134543 0.016744 0.202028
vertex -0.134543 0.000503 -0.073124
vertex -0.044807 0.037673 -0.073124
endloop
endfacet
facet normal 0.922511 -0.382112 -0.054452
outer loop
vertex -0.023879 0.127408 0.202028
vertex -0.007638 0.127408 0.477179
vertex -0.044807 0.037673 0.477179
endloop
endfacet
facet normal 0.922507 -0.382119 -0.054455
outer loop
vertex -0.044807 0.037673 0.477179
vertex -0.056292 0.049157 0.202028
vertex -0.023879 0.127408 0.202028
endloop
endfacet
facet normal 0.922507 -0.382120 0.054452
outer loop
vertex -0.007638 0.127408 -0.073124
vertex -0.023879 0.127408 0.202028
vertex -0.056292 0.049157 0.202028
endloop
endfacet
facet normal 0.922510 -0.382112 0.054454
outer loop
vertex -0.056292 0.049157 0.202028
vertex -0.044807 0.037673 -0.073124
vertex -0.007638 0.127408 -0.073124
endloop
endfacet
facet normal 0.382117 -0.922508 -0.054453
outer loop
vertex -0.056292 0.049157 0.202028
vertex -0.044807 0.037673 0.477179
vertex -0.134543 0.000503 0.477179
endloop
endfacet
facet normal 0.382119 -0.922507 -0.054452
outer loop
vertex -0.134543 0.000503 0.477179
vertex -0.134543 0.016744 0.202028
vertex -0.056292 0.049157 0.202028
endloop
endfacet
facet normal 0.922509 0.382115 0.054454
outer loop
vertex -0.044807 0.217144 -0.073124
vertex -0.056292 0.205660 0.202028
vertex -0.023879 0.127408 0.202028
endloop
endfacet
facet normal 0.922512 0.382108 0.054452
outer loop
vertex -0.023879 0.127408 0.202028
vertex -0.007638 0.127408 -0.073124
vertex -0.044807 0.217144 -0.073124
endloop
endfacet
facet normal -0.382117 -0.922508 -0.054452
outer loop
vertex -0.134543 0.016744 0.202028
vertex -0.134543 0.000503 0.477179
vertex -0.224279 0.037673 0.477179
endloop
endfacet
facet normal -0.382115 -0.922509 -0.054451
outer loop
vertex -0.224279 0.037673 0.477179
vertex -0.212795 0.049157 0.202028
vertex -0.134543 0.016744 0.202028
endloop
endfacet
facet normal -0.922509 0.382115 0.054452
outer loop
vertex -0.261449 0.127408 -0.073124
vertex -0.245208 0.127408 0.202028
vertex -0.212795 0.205660 0.202028
endloop
endfacet
facet normal -0.922509 0.382117 0.054451
outer loop
vertex -0.212795 0.205660 0.202028
vertex -0.224279 0.217144 -0.073124
vertex -0.261449 0.127408 -0.073124
endloop
endfacet
facet normal 0.382120 0.922507 0.054451
outer loop
vertex -0.134543 0.254314 -0.073124
vertex -0.134543 0.238073 0.202028
vertex -0.056292 0.205660 0.202028
endloop
endfacet
facet normal 0.382117 0.922508 0.054452
outer loop
vertex -0.056292 0.205660 0.202028
vertex -0.044807 0.217144 -0.073124
vertex -0.134543 0.254314 -0.073124
endloop
endfacet
facet normal -0.922507 -0.382120 -0.054451
outer loop
vertex -0.212795 0.049157 0.202028
vertex -0.224279 0.037673 0.477179
vertex -0.261449 0.127408 0.477179
endloop
endfacet
facet normal -0.922507 -0.382120 -0.054452
outer loop
vertex -0.261449 0.127408 0.477179
vertex -0.245208 0.127408 0.202028
vertex -0.212795 0.049157 0.202028
endloop
endfacet
facet normal 0.000000 -0.000000 1.000000
outer loop
vertex -0.044807 0.217144 0.477179
vertex -0.044807 0.037673 0.477179
vertex -0.007638 0.127408 0.477179
endloop
endfacet
facet normal 0.000000 0.000000 1.000000
outer loop
vertex -0.224279 0.037673 0.477179
vertex -0.134543 0.000503 0.477179
vertex -0.044807 0.037673 0.477179
endloop
endfacet
facet normal 0.000000 -0.000000 1.000000
outer loop
vertex -0.224279 0.217144 0.477179
vertex -0.261449 0.127408 0.477179
vertex -0.224279 0.037673 0.477179
endloop
endfacet
facet normal -0.000000 0.000000 1.000000
outer loop
vertex -0.044807 0.217144 0.477179
vertex -0.134543 0.254314 0.477179
vertex -0.224279 0.217144 0.477179
endloop
endfacet
facet normal 0.000000 -0.000000 1.000000
outer loop
vertex -0.044807 0.217144 0.477179
vertex -0.224279 0.037673 0.477179
vertex -0.044807 0.037673 0.477179
endloop
endfacet
facet normal 0.000000 0.000000 1.000000
outer loop
vertex -0.044807 0.217144 0.477179
vertex -0.224279 0.217144 0.477179
vertex -0.224279 0.037673 0.477179
endloop
endfacet
facet normal -0.382117 0.922508 -0.054451
outer loop
vertex -0.212795 0.205660 0.202028
vertex -0.224279 0.217144 0.477179
vertex -0.134543 0.254314 0.477179
endloop
endfacet
facet normal -0.382115 0.922509 -0.054452
outer loop
vertex -0.134543 0.254314 0.477179
vertex -0.134543 0.238073 0.202028
vertex -0.212795 0.205660 0.202028
endloop
endfacet
facet normal -0.922509 0.382117 -0.054452
outer loop
vertex -0.245208 0.127408 0.202028
vertex -0.261449 0.127408 0.477179
vertex -0.224279 0.217144 0.477179
endloop
endfacet
facet normal -0.922509 0.382115 -0.054451
outer loop
vertex -0.224279 0.217144 0.477179
vertex -0.212795 0.205660 0.202028
vertex -0.245208 0.127408 0.202028
endloop
endfacet
facet normal -0.382115 -0.922509 0.054452
outer loop
vertex -0.134543 0.000503 -0.073124
vertex -0.134543 0.016744 0.202028
vertex -0.212795 0.049157 0.202028
endloop
endfacet
facet normal -0.382117 -0.922508 0.054451
outer loop
vertex -0.212795 0.049157 0.202028
vertex -0.224279 0.037673 -0.073124
vertex -0.134543 0.000503 -0.073124
endloop
endfacet
facet normal 0.000000 -0.000000 -1.000000
outer loop
vertex -0.134543 0.254314 -0.073124
vertex -0.261449 0.127408 -0.073124
vertex -0.224279 0.217144 -0.073124
endloop
endfacet
facet normal 0.000000 0.000000 -1.000000
outer loop
vertex -0.134543 0.000503 -0.073124
vertex -0.224279 0.037673 -0.073124
vertex -0.261449 0.127408 -0.073124
endloop
endfacet
facet normal 0.000000 0.000000 -1.000000
outer loop
vertex -0.007638 0.127408 -0.073124
vertex -0.044807 0.037673 -0.073124
vertex -0.134543 0.000503 -0.073124
endloop
endfacet
facet normal 0.000000 0.000000 -1.000000
outer loop
vertex -0.134543 0.254314 -0.073124
vertex -0.044807 0.217144 -0.073124
vertex -0.007638 0.127408 -0.073124
endloop
endfacet
facet normal 0.000000 0.000000 -1.000000
outer loop
vertex -0.134543 0.254314 -0.073124
vertex -0.134543 0.000503 -0.073124
vertex -0.261449 0.127408 -0.073124
endloop
endfacet
facet normal 0.000000 0.000000 -1.000000
outer loop
vertex -0.134543 0.254314 -0.073124
vertex -0.007638 0.127408 -0.073124
vertex -0.134543 0.000503 -0.073124
endloop
endfacet
endsolid Exported from Blender-2.72 (sub 0)
